<?xml version="1.0" standalone="no"?>
<!DOCTYPE svg PUBLIC "-//W3C//DTD SVG 20010904//EN"
 "http://www.w3.org/TR/2001/REC-SVG-20010904/DTD/svg10.dtd">
<svg version="1.0" xmlns="http://www.w3.org/2000/svg"
 width="64.000000pt" height="64.000000pt" viewBox="0 0 2048.000000 2048.000000"
 preserveAspectRatio="xMidYMid meet">

<g transform="translate(0.000000,2048.000000) scale(0.100000,-0.100000)"
fill="#000000" stroke="none">
<path d="M10065 19160 c-633 -26 -1228 -111 -1825 -260 -2508 -629 -4607
-2321 -5754 -4640 -935 -1890 -1163 -4038 -646 -6075 314 -1235 891 -2387
1693 -3378 331 -409 778 -864 1182 -1203 1222 -1024 2693 -1696 4265 -1949
1198 -193 2405 -137 3585 165 1359 347 2581 995 3660 1939 161 141 624 605
764 766 526 603 952 1239 1291 1926 820 1663 1096 3534 789 5363 -253 1509
-908 2950 -1876 4129 -366 444 -837 912 -1273 1263 -1118 900 -2422 1511
-3825 1789 -664 132 -1390 191 -2030 165z m945 -480 c2006 -158 3859 -1010
5275 -2425 903 -903 1587 -2001 1995 -3202 240 -705 372 -1357 432 -2133 16
-213 16 -934 0 -1135 -71 -863 -220 -1564 -488 -2293 -518 -1409 -1376 -2623
-2532 -3580 -150 -125 -271 -216 -277 -210 -7 7 -35 324 -35 398 0 76 -32 322
-60 465 -10 55 -24 136 -29 180 -28 211 -34 254 -47 313 -8 35 -14 82 -14 106
0 35 5 46 30 64 33 25 113 138 154 219 73 145 100 274 90 423 l-7 95 -43 44
-43 43 15 37 c24 56 129 315 168 416 19 50 51 126 71 170 20 44 52 123 71 175
19 52 70 161 113 241 43 80 90 177 104 215 15 38 42 95 61 126 19 31 46 89 60
128 43 119 84 208 116 255 17 25 42 76 55 113 13 37 47 117 75 177 29 61 59
133 65 160 7 28 40 109 73 180 57 123 75 175 121 355 11 41 40 136 65 210 25
74 80 245 122 380 42 135 95 288 119 340 39 87 68 170 198 575 58 180 71 268
64 453 -6 180 -28 262 -147 542 -17 41 -44 109 -60 150 -15 41 -42 106 -60
143 -18 38 -30 69 -29 71 2 1 36 24 74 51 137 97 185 156 185 230 0 41 -35
116 -89 190 -31 41 -230 429 -307 595 -11 25 -39 79 -61 120 -40 73 -156 401
-188 530 -9 36 -34 118 -56 183 -21 64 -39 123 -39 130 0 14 -21 38 -52 60
-11 8 -41 97 -83 242 -60 208 -113 366 -220 659 -35 97 -115 394 -115 428 0
21 -56 185 -68 202 -5 6 -30 72 -56 146 -26 74 -61 171 -77 215 -16 44 -56
157 -88 250 -58 168 -141 390 -206 555 -18 47 -57 133 -86 193 -49 101 -61
116 -188 246 -117 119 -146 143 -211 174 -41 20 -116 61 -166 90 -102 59 -436
177 -629 222 -60 14 -130 32 -155 39 -121 37 -206 56 -330 75 -74 11 -236 36
-360 55 -124 20 -292 45 -375 56 -82 12 -188 30 -235 41 -83 20 -289 59 -420
80 -88 15 -187 46 -220 69 -26 18 -28 25 -39 157 -7 76 -15 141 -18 145 -8 14
-43 8 -50 -7 -9 -25 13 -277 28 -308 14 -30 79 -69 136 -81 52 -12 56 -23 48
-148 -8 -131 -16 -152 -122 -348 -81 -148 -143 -218 -293 -328 -41 -30 -101
-79 -133 -109 -45 -41 -104 -76 -250 -149 -106 -53 -214 -103 -242 -111 -34
-10 -129 -17 -290 -22 l-240 -8 -195 43 c-217 47 -241 55 -286 89 -18 14 -65
40 -106 60 -41 19 -82 43 -91 53 -8 9 -44 67 -80 129 -50 87 -68 129 -81 195
-10 45 -33 119 -51 163 -18 44 -36 107 -40 140 -4 33 -11 69 -15 80 -5 14 0
30 18 53 22 29 24 39 19 100 -8 93 -33 222 -45 234 -6 6 -18 8 -26 5 -20 -8
-21 -52 -1 -154 20 -104 19 -133 -6 -159 -17 -19 -25 -21 -49 -13 -22 8 -45 4
-121 -25 -136 -50 -397 -128 -604 -180 -99 -25 -238 -68 -309 -96 -71 -28
-186 -67 -255 -86 -69 -19 -164 -49 -211 -66 -104 -37 -205 -69 -328 -103
-161 -44 -219 -77 -576 -333 -210 -151 -338 -253 -435 -346 -122 -118 -376
-402 -454 -508 -15 -20 -70 -85 -124 -145 -173 -194 -423 -544 -613 -858 -56
-93 -128 -206 -159 -250 -32 -44 -107 -152 -166 -240 -60 -88 -141 -198 -181
-245 -39 -47 -109 -136 -156 -197 -86 -113 -272 -332 -404 -474 -39 -42 -106
-121 -150 -175 -43 -54 -113 -135 -154 -179 -42 -44 -111 -125 -155 -180 -44
-55 -137 -160 -208 -233 l-130 -134 6 -55 6 -56 -137 -144 c-76 -80 -173 -171
-217 -203 -44 -32 -111 -86 -150 -120 -81 -71 -276 -209 -426 -300 -57 -35
-149 -94 -204 -130 -55 -37 -133 -85 -173 -108 -39 -23 -115 -69 -167 -103
-53 -34 -98 -59 -101 -56 -9 9 34 341 76 595 132 783 385 1563 739 2283 811
1648 2151 2989 3796 3799 974 479 2029 767 3085 840 85 6 178 12 205 14 97 7
902 -4 1035 -14z m1358 -1119 c51 -10 95 -21 98 -24 12 -12 -19 -154 -51 -238
-19 -49 -35 -95 -35 -104 0 -31 -53 -153 -98 -225 -53 -85 -206 -244 -327
-338 -44 -34 -111 -87 -148 -117 -37 -30 -118 -81 -178 -115 -61 -33 -139 -80
-174 -104 -67 -46 -132 -66 -408 -126 -170 -37 -301 -40 -422 -10 -44 11 -120
27 -170 35 -322 56 -469 97 -568 159 -111 69 -326 295 -400 419 -72 121 -87
173 -107 382 -6 55 -11 110 -13 123 -2 19 7 27 58 47 33 14 63 25 66 25 3 0 9
-22 12 -50 3 -27 22 -89 41 -137 19 -49 44 -128 56 -177 11 -49 33 -112 49
-140 117 -211 150 -250 258 -301 40 -19 91 -48 114 -65 23 -16 72 -39 108 -49
116 -33 405 -94 446 -93 22 0 117 0 210 1 123 1 201 6 280 21 101 18 124 27
322 125 165 82 227 118 271 159 31 29 86 74 122 101 124 94 216 175 251 222
45 59 183 312 210 384 12 31 23 90 26 141 3 48 6 88 7 88 1 0 43 -9 94 -19z
m462 -86 c91 -14 264 -41 385 -60 121 -19 270 -41 330 -50 179 -25 186 -30 67
-43 -56 -7 -131 -12 -165 -12 -61 0 -488 -32 -662 -50 -180 -18 -245 -23 -245
-18 0 3 9 25 20 50 10 24 24 77 31 118 15 104 15 103 47 96 15 -3 101 -17 192
-31z m1115 -205 c3 -5 0 -10 -7 -10 -7 0 -157 -14 -333 -30 -176 -17 -354 -33
-395 -36 -41 -2 -136 -11 -210 -19 -74 -8 -200 -22 -280 -30 -80 -9 -162 -18
-182 -21 -33 -5 -36 -4 -31 15 3 12 8 23 12 25 21 14 404 53 641 66 262 14
503 31 585 40 106 11 193 11 200 0z m-4715 -19 c0 -5 3 -16 6 -25 5 -12 0 -16
-22 -16 -16 0 -62 -6 -103 -14 -114 -22 -117 -7 -5 30 109 35 124 38 124 25z
m5203 -113 l132 -43 -75 -2 c-148 -5 -327 -25 -430 -49 -90 -22 -278 -56 -665
-120 -50 -9 -174 -17 -280 -19 -181 -3 -198 -5 -366 -44 -97 -22 -237 -59
-310 -81 -73 -22 -139 -40 -147 -40 -8 0 4 21 28 47 23 26 63 84 90 129 l50
81 132 17 c73 10 169 24 213 32 44 8 179 23 300 34 121 11 253 24 293 30 40 5
200 17 355 25 269 14 456 31 466 40 14 15 99 0 214 -37z m-5467 -26 c71 -5
160 -7 197 -4 38 2 73 0 78 -5 4 -4 11 -41 15 -81 8 -83 9 -83 -79 -52 -79 28
-119 25 -201 -13 -61 -29 -95 -37 -241 -55 -152 -20 -188 -21 -340 -12 -194
11 -263 19 -270 31 -3 4 9 11 27 14 67 15 325 98 421 136 151 60 228 80 248
63 10 -9 60 -17 145 -22z m5689 -98 c64 -6 89 -13 125 -36 32 -21 38 -28 20
-24 -52 13 -159 25 -275 31 -139 8 -355 -19 -485 -60 -150 -47 -476 -106 -640
-116 -85 -5 -225 -14 -310 -19 -135 -8 -168 -13 -260 -44 -307 -101 -406 -127
-555 -146 -82 -11 -151 -18 -152 -16 -2 2 17 22 42 45 37 34 52 41 85 41 22 0
81 13 132 29 51 17 197 56 323 87 l230 57 230 8 c127 4 257 12 290 17 149 24
376 66 555 102 285 57 398 65 645 44z m-5476 -108 c25 -8 59 -18 75 -23 36
-10 50 -37 14 -28 -12 3 -71 9 -130 14 -113 10 -107 10 -293 -39 -69 -19 -117
-22 -340 -27 -229 -5 -276 -3 -395 15 -137 21 -206 39 -165 43 41 3 134 -2
265 -17 310 -33 670 -11 787 50 55 29 114 33 182 12z m5501 -42 c49 -8 116
-27 147 -41 65 -29 200 -73 224 -73 24 0 96 -82 104 -118 3 -18 11 -34 16 -37
5 -4 9 -12 9 -19 0 -10 -11 -11 -47 -4 -27 5 -91 13 -143 18 -52 6 -129 17
-170 26 -41 8 -140 18 -220 21 -128 5 -163 2 -297 -21 -83 -15 -198 -39 -255
-55 -56 -15 -155 -40 -218 -55 -63 -15 -142 -38 -175 -52 -86 -37 -138 -50
-309 -78 -217 -35 -288 -38 -596 -25 -291 13 -255 15 -645 -31 -38 -5 -99 -14
-135 -20 -36 -6 -105 -10 -154 -8 l-89 3 74 47 c41 26 98 67 128 93 39 34 59
44 74 39 68 -21 476 38 622 90 39 14 78 26 87 26 9 0 90 23 180 52 179 57 158
55 488 48 127 -3 265 15 349 45 22 8 100 25 173 39 73 14 176 40 228 57 52 17
115 34 140 39 81 14 315 11 410 -6z m-6913 -89 c111 -33 355 -77 463 -84 63
-4 219 -4 345 -1 222 5 232 6 285 31 112 54 223 59 409 21 l83 -17 35 -55 c20
-30 49 -72 66 -93 16 -21 27 -40 25 -43 -3 -2 -58 -8 -124 -13 -65 -5 -162
-18 -215 -30 -52 -11 -163 -25 -245 -32 -130 -10 -163 -10 -264 5 -431 64
-439 65 -760 72 -367 8 -456 0 -604 -51 -55 -19 -101 -34 -102 -32 -5 4 141
111 252 184 49 33 103 69 120 81 33 25 140 71 165 72 8 0 38 -7 66 -15z m6930
-206 c43 -5 110 -17 150 -25 40 -7 95 -14 123 -14 69 0 140 -19 140 -37 0 -39
-17 -50 -67 -42 -55 9 -196 23 -403 40 -209 18 -444 -6 -620 -61 -52 -16 -135
-41 -185 -56 -49 -14 -137 -41 -195 -59 -190 -61 -274 -84 -350 -94 -195 -27
-277 -33 -425 -30 -194 4 -737 -16 -895 -32 -63 -6 -205 -33 -315 -59 -110
-26 -227 -51 -260 -55 -33 -4 -112 -15 -175 -26 -311 -53 -554 -71 -1195 -89
-239 -6 -411 -16 -485 -26 -136 -20 -302 -19 -453 2 -87 12 -130 13 -230 4
-67 -6 -162 -8 -212 -4 -49 3 -150 1 -223 -5 -109 -10 -168 -9 -337 5 -142 11
-274 15 -423 11 -208 -4 -221 -6 -321 -36 -275 -83 -506 -184 -596 -261 -11
-10 -32 -25 -47 -34 -26 -17 -26 -17 -21 4 6 21 79 80 171 138 23 15 77 50
120 78 44 28 108 61 143 72 83 27 294 62 373 62 35 0 105 7 157 16 98 17 287
15 449 -5 56 -7 109 -5 210 7 131 16 320 17 970 10 199 -3 589 10 705 23 245
27 299 30 363 21 37 -5 191 -8 342 -7 217 1 288 5 335 18 33 9 106 25 163 36
149 29 258 65 327 107 69 43 101 49 331 63 82 5 175 14 205 19 91 18 378 45
479 46 52 0 210 -4 350 -8 178 -6 281 -5 340 3 208 28 360 62 465 105 66 26
491 133 655 164 120 22 253 27 367 11z m577 -160 l34 -84 -72 -75 c-39 -41
-92 -99 -116 -127 -24 -29 -49 -53 -56 -53 -6 0 -22 -16 -33 -36 l-22 -37 -77
6 c-167 14 -259 26 -302 42 -35 13 -79 16 -203 15 -176 -1 -253 -13 -367 -58
-70 -28 -89 -31 -300 -43 -124 -6 -259 -13 -300 -14 -56 -2 -96 -11 -160 -35
-305 -115 -490 -151 -765 -148 -88 1 -200 1 -250 1 -112 0 -441 -20 -475 -29
-27 -7 -90 -14 -325 -38 -82 -8 -193 -24 -245 -35 -52 -12 -132 -21 -176 -21
-45 0 -126 -9 -180 -20 -55 -10 -187 -28 -294 -40 -107 -11 -229 -30 -270 -42
-134 -38 -433 -30 -916 23 -108 12 -552 -2 -649 -20 -217 -42 -561 -81 -584
-67 -8 6 -326 18 -471 19 -238 2 -805 -177 -936 -295 -21 -20 -48 -37 -59 -39
-26 -5 -33 -49 -10 -65 20 -15 47 -1 105 52 68 64 354 179 587 238 102 25 316
58 338 51 11 -4 130 -10 265 -15 314 -10 546 8 790 60 25 6 155 15 289 21 187
9 265 8 330 -1 210 -29 469 -49 666 -51 150 -2 167 0 275 29 77 20 171 35 285
46 94 9 220 25 280 36 66 12 130 17 160 14 45 -5 229 25 255 41 5 3 78 12 162
21 84 8 191 19 238 24 47 5 164 14 260 19 96 5 199 15 229 22 42 9 75 9 140 0
64 -9 140 -9 291 -2 237 12 239 12 385 56 61 19 130 39 155 45 25 7 83 28 130
47 68 29 100 36 160 38 41 2 179 7 305 13 216 9 234 11 295 37 139 58 174 64
346 66 131 0 168 -3 200 -16 40 -17 123 -30 272 -42 50 -3 82 -10 82 -17 -1
-6 -11 -23 -23 -38 l-22 -26 -110 18 c-73 13 -162 19 -265 20 -85 0 -192 4
-238 10 -117 13 -271 -20 -406 -87 -77 -39 -218 -63 -364 -63 -212 0 -480 -31
-598 -69 -134 -44 -184 -52 -264 -45 -79 6 -86 5 -352 -55 -25 -6 -63 -3 -125
10 -140 30 -293 22 -456 -22 -40 -10 -162 -28 -272 -39 -110 -10 -249 -29
-309 -40 -94 -18 -130 -20 -265 -15 -141 6 -163 4 -216 -14 -33 -11 -91 -27
-130 -35 -38 -9 -92 -22 -120 -30 -27 -7 -95 -18 -150 -24 -307 -35 -406 -43
-427 -38 -12 4 -59 18 -103 31 -153 45 -233 54 -425 44 -96 -5 -218 -6 -270
-3 -126 8 -279 -9 -418 -47 -103 -27 -118 -29 -167 -19 -30 6 -114 13 -187 15
-73 1 -187 6 -252 10 -217 14 -650 -33 -869 -94 -41 -11 -104 -44 -187 -97
-69 -44 -141 -87 -160 -94 -19 -8 -53 -26 -75 -41 -37 -24 -43 -26 -66 -14
-14 8 -44 42 -66 77 -23 35 -77 98 -122 140 -64 63 -81 85 -86 115 -10 58 -25
91 -72 154 -24 33 -43 62 -43 65 0 20 229 294 246 294 7 0 21 11 31 24 10 14
79 55 153 92 74 36 156 82 182 100 50 37 146 80 267 118 42 14 102 34 135 46
168 60 537 79 786 41 74 -12 164 -26 200 -31 36 -6 117 -19 181 -29 250 -41
418 -38 640 9 47 11 121 22 165 25 43 3 114 11 156 17 66 10 92 9 176 -7 55
-10 109 -15 120 -13 14 4 46 -10 99 -43 43 -28 103 -56 133 -65 30 -8 87 -23
125 -34 39 -11 90 -22 115 -26 42 -6 88 -23 64 -24 -6 0 -91 -9 -190 -19 -213
-23 -809 -35 -1149 -24 -156 6 -287 4 -450 -6 -280 -17 -363 -18 -574 -5 -90
6 -182 7 -205 3 -23 -5 -104 -13 -181 -18 -261 -19 -476 -74 -576 -148 -30
-22 -70 -48 -89 -58 -19 -10 -66 -41 -105 -70 -38 -29 -85 -61 -102 -71 -39
-22 -45 -46 -41 -154 3 -69 5 -75 25 -78 14 -2 60 22 130 69 60 40 132 80 163
89 30 9 84 32 119 49 80 41 226 91 401 138 131 35 140 36 320 37 307 1 723
-11 758 -22 91 -29 216 -25 434 14 69 13 125 15 280 10 536 -18 686 -17 822 6
117 20 139 21 255 10 105 -9 139 -8 201 4 41 8 113 15 160 14 129 0 378 16
440 29 69 14 337 56 450 71 47 6 127 24 178 41 51 16 105 29 121 29 15 0 63 9
107 21 73 19 93 20 274 12 283 -11 349 -9 510 16 80 12 195 27 255 32 61 6
139 16 175 24 36 7 97 16 135 20 77 7 255 45 325 70 25 9 104 29 175 45 72 16
171 44 220 63 164 64 226 72 535 70 301 -1 391 -12 486 -58 63 -31 65 -31 93
1 21 24 33 47 72 143 5 13 12 21 15 19 2 -3 20 -43 38 -89z m-6914 31 c332
-52 346 -53 507 -46 145 6 225 17 373 51 36 8 117 18 180 23 114 8 115 8 143
-17 18 -17 23 -27 15 -32 -6 -4 -68 -10 -137 -14 -138 -7 -227 -24 -338 -61
-62 -21 -89 -24 -215 -24 -146 0 -400 27 -518 54 -36 8 -132 27 -215 42 -136
24 -164 26 -298 20 -248 -12 -463 -34 -545 -57 -195 -54 -362 -128 -492 -215
-19 -13 -38 -24 -43 -24 -37 0 135 114 220 146 36 14 89 40 117 59 65 43 261
114 346 125 36 5 211 7 390 4 295 -5 342 -8 510 -34z m6986 -227 c6 -34 4 -39
-33 -72 -22 -20 -69 -57 -106 -83 -68 -48 -107 -97 -107 -133 0 -33 -47 -124
-91 -177 -23 -27 -43 -47 -45 -45 -8 8 36 129 70 194 46 87 270 353 298 353 4
0 10 -17 14 -37z m123 -316 l31 -89 -22 -31 c-38 -56 -62 -78 -118 -108 -75
-40 -204 -164 -217 -209 -6 -19 -17 -61 -24 -94 -17 -79 -54 -125 -146 -187
-84 -55 -224 -191 -250 -243 -34 -68 -27 -66 -237 -66 -183 0 -454 -19 -786
-57 -81 -9 -249 -17 -380 -19 -360 -4 -545 -13 -591 -29 -23 -8 -56 -15 -73
-15 -17 0 -47 -5 -66 -10 -19 -6 -109 -20 -200 -30 -91 -11 -230 -31 -310 -44
-80 -14 -190 -27 -245 -30 -55 -3 -161 -17 -235 -31 -193 -37 -468 -63 -740
-70 -129 -3 -264 -10 -300 -15 -36 -5 -108 -14 -160 -20 -52 -7 -130 -18 -172
-26 -43 -7 -157 -18 -255 -24 -518 -29 -599 -32 -683 -21 -46 6 -133 11 -193
11 -59 0 -129 5 -154 12 -69 17 -627 -6 -1058 -44 -71 -6 -175 -10 -231 -9
-80 2 -110 -2 -151 -18 -28 -11 -79 -25 -114 -31 -83 -15 -171 -53 -289 -125
-118 -72 -189 -111 -216 -119 -19 -6 -23 -2 -28 29 -4 21 -15 39 -29 46 -39
21 -234 214 -298 295 -34 44 -83 102 -109 129 -26 28 -64 74 -84 102 -21 29
-48 61 -60 70 -12 10 -37 38 -55 63 -32 44 -33 47 -27 121 l6 77 -40 50 c-21
28 -61 67 -87 87 -49 37 -68 68 -56 88 13 22 115 157 119 157 2 0 8 -18 14
-41 26 -95 81 -193 148 -264 90 -95 145 -163 166 -204 10 -18 65 -85 123 -147
76 -83 111 -114 128 -114 13 0 27 6 31 12 5 7 7 64 6 126 l-3 113 45 43 c53
53 113 89 190 116 31 10 69 28 84 38 75 53 217 107 307 116 462 50 501 53 678
44 84 -4 205 -5 269 -1 74 4 151 1 212 -7 l96 -14 93 37 c147 59 180 64 274
38 116 -31 180 -34 359 -18 193 17 296 7 425 -43 65 -25 92 -30 123 -26 23 4
111 10 196 15 149 8 274 31 329 60 39 21 188 61 262 70 50 7 92 5 147 -5 125
-22 169 -18 332 30 85 24 250 46 352 46 97 0 216 17 319 46 62 17 68 17 324
-6 121 -10 190 -3 315 32 57 16 107 22 213 24 l138 2 84 42 c79 39 89 41 162
40 141 -4 406 8 529 23 156 20 256 47 369 103 167 81 210 85 490 43 72 -11
199 -23 283 -26 83 -3 152 -8 152 -10 0 -2 -7 -33 -16 -68 -19 -75 -12 -170
12 -179 28 -11 82 28 155 109 90 101 126 154 146 213 31 89 70 140 133 172 32
16 62 35 66 41 9 16 33 -32 73 -144z m65 -203 c11 -40 -25 -78 -112 -119 -56
-27 -96 -55 -148 -107 -73 -71 -95 -78 -67 -21 19 40 152 157 214 189 26 13
57 37 70 53 30 37 35 38 43 5z m88 -242 c19 -53 28 -92 24 -107 -9 -34 -134
-165 -158 -165 -33 0 -77 -29 -94 -63 -18 -36 -83 -107 -98 -107 -18 0 -76
-51 -105 -94 -17 -24 -33 -63 -37 -87 -13 -81 -60 -153 -132 -201 -27 -18
-157 -133 -190 -168 -13 -14 -31 -36 -39 -50 -9 -14 -46 -52 -83 -85 -54 -47
-76 -60 -107 -63 -96 -8 -202 -6 -368 6 -154 11 -215 10 -425 -3 -135 -9 -301
-22 -370 -30 -156 -18 -440 -50 -630 -71 -80 -8 -190 -22 -245 -30 -55 -7
-185 -21 -290 -29 -365 -29 -728 -70 -841 -95 -48 -11 -357 -31 -542 -35 -61
-1 -118 -7 -125 -12 -20 -16 -566 -53 -787 -53 -295 -1 -735 -17 -812 -30 -49
-9 -85 -9 -136 -1 -108 17 -604 15 -763 -3 -125 -14 -276 -26 -514 -41 -290
-18 -409 -34 -549 -75 -76 -22 -164 -53 -195 -69 -31 -16 -64 -32 -74 -35 -22
-7 -40 -53 -32 -83 9 -37 -15 -28 -101 34 -44 31 -122 86 -174 121 -52 36
-131 99 -175 142 -44 42 -125 115 -180 162 -148 127 -139 112 -146 240 l-6
111 -69 64 c-217 203 -231 218 -260 280 -16 35 -35 63 -42 63 -7 0 -18 11 -24
25 -12 27 -4 42 87 168 l42 57 65 -57 c36 -32 82 -71 102 -86 20 -16 48 -47
63 -69 25 -40 25 -45 19 -145 l-7 -104 83 -85 c46 -47 112 -108 148 -134 36
-27 120 -109 187 -182 156 -170 318 -329 364 -356 34 -20 38 -21 50 -5 8 9 30
23 49 31 19 8 67 36 105 62 71 48 194 105 295 135 30 9 82 26 115 37 33 11 96
29 140 39 44 10 95 23 114 28 19 6 44 8 56 5 12 -3 66 7 121 21 95 26 113 27
494 36 217 5 571 8 785 7 215 -1 424 -2 465 -2 88 1 487 30 610 45 47 6 182
12 300 14 118 2 298 10 400 18 102 9 270 21 373 27 104 6 199 15 210 19 12 5
69 13 127 19 58 6 197 21 310 33 113 11 264 31 335 44 188 35 391 56 895 96
69 5 149 14 177 19 29 5 133 14 230 20 98 6 259 20 358 31 115 12 262 20 408
22 l227 2 -2 -50 -3 -50 33 1 c74 4 176 107 197 199 17 78 92 157 200 213 92
47 160 160 172 284 6 67 8 73 58 127 35 37 79 69 128 95 41 21 94 51 118 67
24 15 48 27 53 25 5 -1 22 -39 38 -84z m-9314 -2 c12 -16 27 -53 33 -82 15
-72 21 -81 101 -157 39 -36 96 -101 126 -144 30 -43 68 -88 83 -100 26 -19 29
-26 29 -79 0 -62 -9 -71 -33 -35 -8 12 -40 51 -72 87 -31 36 -74 95 -95 131
-42 70 -79 119 -166 212 -53 57 -54 58 -54 121 0 85 11 96 48 46z m9392 -220
l13 -41 -48 -49 c-29 -30 -68 -57 -95 -67 -26 -9 -70 -40 -105 -73 -33 -31
-91 -81 -129 -110 -38 -30 -82 -72 -98 -94 l-30 -41 7 45 c12 74 57 134 121
159 19 8 48 35 72 69 59 83 69 92 99 92 20 0 44 18 97 73 39 41 74 75 77 75 3
1 12 -16 19 -38z m-577 -47 c-3 -21 -12 -50 -19 -64 -19 -38 -86 -95 -152
-128 -75 -38 -112 -69 -152 -129 l-32 -47 7 35 c16 79 108 190 229 274 51 35
98 71 105 80 19 23 20 21 14 -21z m-9046 -99 c44 -42 53 -57 53 -86 0 -19 -3
-37 -6 -41 -9 -9 -204 156 -204 173 0 4 9 19 20 33 l20 25 32 -26 c18 -15 56
-50 85 -78z m9714 -151 c27 -107 28 -119 13 -128 -9 -5 -55 -43 -102 -83 -53
-45 -125 -93 -183 -123 -90 -46 -99 -53 -118 -97 -33 -73 -34 -74 -107 -124
-155 -106 -227 -189 -239 -279 -6 -41 -16 -61 -52 -101 -55 -62 -127 -125
-150 -132 -75 -21 -203 -46 -243 -46 -26 0 -52 -6 -58 -13 -6 -7 -12 -40 -14
-72 l-3 -60 -90 -4 c-142 -6 -267 -5 -440 4 -143 7 -172 6 -265 -13 -85 -16
-162 -22 -395 -27 -244 -5 -302 -9 -365 -26 -58 -16 -129 -22 -310 -29 -129
-5 -260 -13 -290 -19 -30 -5 -190 -19 -355 -31 -165 -11 -354 -25 -420 -30
-66 -5 -181 -12 -255 -16 -74 -3 -182 -12 -240 -19 -58 -8 -166 -21 -240 -30
-74 -8 -187 -22 -250 -30 -122 -15 -262 -28 -505 -45 -82 -6 -157 -13 -165
-15 -26 -8 -452 -18 -785 -20 -349 -1 -1178 -31 -1290 -45 -38 -5 -162 -14
-275 -20 -138 -8 -230 -18 -282 -31 -47 -12 -114 -19 -175 -20 -133 -2 -157
-8 -161 -40 -4 -31 22 -57 41 -41 7 6 67 14 134 17 66 3 141 12 167 19 25 8
128 19 229 25 100 7 211 16 247 21 191 28 951 56 1360 51 470 -5 1050 28 1470
84 58 8 177 21 265 30 88 9 189 20 225 25 36 6 142 14 235 20 153 8 431 29
1000 75 105 8 280 19 390 24 142 7 213 14 245 26 50 18 275 34 505 35 100 0
170 6 245 21 93 19 122 20 260 13 208 -11 579 -8 665 6 158 26 226 49 319 108
114 73 160 127 182 212 9 35 23 75 32 88 8 13 65 57 126 98 113 75 224 163
238 188 9 16 139 125 237 199 36 27 72 54 79 59 14 12 40 -41 88 -181 l28 -84
-39 -34 c-104 -89 -296 -195 -425 -233 -90 -27 -120 -54 -120 -109 0 -35 -3
-40 -29 -46 -15 -3 -77 -33 -137 -66 -60 -34 -136 -73 -169 -88 -67 -31 -135
-98 -135 -134 0 -12 -7 -35 -15 -50 -8 -16 -19 -46 -25 -68 -17 -62 -45 -74
-168 -72 -73 1 -111 7 -127 17 -18 12 -26 12 -39 3 -21 -15 -23 -38 -12 -170
7 -90 12 -110 28 -122 11 -7 25 -12 32 -10 6 2 52 6 101 9 164 9 229 30 278
90 52 63 57 78 57 164 0 69 3 81 23 99 26 24 171 93 272 130 91 33 139 64 201
129 41 42 63 56 110 69 33 10 88 32 124 51 36 18 85 38 110 44 44 12 112 69
153 130 11 15 20 21 26 15 11 -11 81 -250 81 -276 0 -17 -108 -104 -195 -157
-78 -48 -310 -125 -423 -140 -71 -10 -102 -32 -102 -73 0 -34 -30 -64 -79 -80
-20 -6 -65 -28 -101 -49 -68 -40 -179 -94 -313 -151 -97 -41 -137 -82 -137
-139 0 -21 -5 -42 -11 -46 -6 -3 -44 -3 -84 1 -70 6 -73 8 -79 35 l-5 29 -203
-2 c-168 -2 -215 1 -273 16 -235 61 -267 67 -342 67 -43 0 -98 -5 -123 -11
-99 -23 -199 -30 -500 -39 -293 -8 -444 -22 -550 -50 -19 -5 -127 -21 -240
-35 -113 -14 -232 -30 -265 -35 -61 -10 -301 -24 -700 -40 -121 -5 -305 -15
-410 -24 -104 -8 -307 -17 -450 -20 -266 -7 -355 -12 -764 -47 -284 -25 -718
-28 -1000 -9 -175 13 -208 12 -355 -4 -88 -10 -201 -24 -250 -33 -50 -8 -171
-16 -275 -18 -169 -2 -383 -19 -402 -31 -34 -21 -413 -85 -459 -78 -32 5 -40
3 -50 -16 -9 -17 -8 -26 5 -46 18 -27 18 -27 59 -14 17 5 80 17 140 26 60 9
153 27 205 40 162 41 188 44 464 54 147 5 309 16 360 24 287 45 338 48 593 30
274 -18 728 -13 946 12 206 23 373 33 743 44 193 6 411 15 485 20 74 5 326 19
559 30 255 12 478 28 560 39 139 20 264 35 381 46 36 4 94 13 130 20 176 38
268 47 555 55 283 9 367 15 510 40 111 19 188 8 460 -64 78 -21 105 -24 200
-19 227 10 215 14 215 -63 l0 -57 -72 7 c-40 4 -116 16 -170 27 -53 10 -111
19 -130 19 -38 0 -145 20 -273 51 -81 19 -106 21 -256 15 -91 -4 -195 -11
-230 -17 -197 -29 -292 -39 -375 -39 -72 0 -111 -6 -175 -26 -78 -25 -85 -25
-197 -15 -76 7 -138 7 -177 1 -112 -17 -572 -53 -850 -65 -158 -7 -368 -30
-490 -52 -71 -13 -162 -17 -430 -19 -267 -1 -358 -5 -425 -18 -169 -33 -251
-38 -430 -31 -96 4 -213 7 -260 8 -174 1 -607 -14 -677 -23 -40 -5 -170 -7
-297 -3 -221 6 -477 -6 -606 -28 -190 -32 -244 -38 -413 -43 -103 -4 -199 -11
-212 -16 -14 -5 -67 -15 -117 -21 -50 -6 -123 -19 -161 -29 -43 -11 -78 -15
-91 -11 -12 5 -59 11 -106 15 -94 8 -253 48 -315 78 -56 29 -129 83 -208 156
-38 34 -81 65 -95 68 -55 12 -83 27 -116 65 -46 50 -71 101 -86 173 -25 120
-61 174 -139 209 -25 11 -109 59 -186 106 -115 71 -159 105 -250 196 -122 122
-204 224 -280 350 -27 45 -61 91 -74 102 l-24 19 78 117 c43 64 82 117 86 117
11 0 44 -52 104 -162 31 -56 71 -109 123 -161 42 -43 100 -101 127 -129 80
-81 174 -152 264 -200 l83 -44 5 -69 c3 -39 4 -85 4 -103 -1 -39 11 -66 48
-105 29 -32 141 -109 186 -128 98 -42 168 -94 234 -175 37 -45 82 -94 99 -109
36 -30 117 -65 252 -107 52 -17 107 -37 122 -46 22 -13 29 -13 43 -2 13 11 15
27 10 100 -7 97 -7 96 65 125 36 14 73 17 181 17 75 0 163 -5 195 -11 43 -8
69 -8 94 0 19 6 71 15 115 19 44 4 136 13 205 20 69 6 166 20 215 31 139 31
317 44 352 26 78 -39 418 -47 559 -13 139 34 312 52 609 63 113 4 164 1 265
-16 71 -12 201 -24 300 -27 186 -7 249 0 325 36 111 54 351 90 593 90 180 0
350 19 587 65 103 19 136 19 275 -5 l114 -20 91 25 c49 14 109 25 132 25 70 0
326 47 384 71 50 21 71 23 279 25 191 1 236 4 296 21 61 17 92 20 211 15 159
-5 232 4 373 50 93 29 98 30 230 23 74 -4 207 -9 295 -11 l160 -3 27 30 c32
34 35 51 13 69 -13 11 -27 11 -71 1 -40 -9 -90 -11 -172 -5 -65 4 -146 8 -182
9 -36 1 -86 5 -112 10 -35 6 -63 3 -115 -13 -121 -37 -331 -62 -523 -62 -103
0 -211 -6 -262 -15 -64 -10 -130 -12 -241 -8 -151 6 -155 5 -258 -25 -57 -17
-169 -40 -249 -52 -135 -19 -244 -26 -717 -50 -100 -5 -199 -14 -220 -20 -21
-6 -83 -15 -138 -20 -146 -13 -327 -29 -520 -45 -93 -8 -204 -21 -245 -29 -95
-18 -417 -31 -810 -31 -293 -1 -507 -13 -655 -37 -61 -10 -414 -13 -777 -5
-114 2 -364 -21 -472 -44 -146 -31 -297 -42 -486 -36 -139 5 -188 3 -240 -9
-36 -9 -81 -16 -100 -17 -34 -2 -35 -4 -36 -42 -2 -68 -4 -73 -18 -78 -8 -3
-46 9 -84 28 -71 34 -203 145 -342 287 -36 36 -87 80 -115 96 -255 150 -277
170 -294 264 -6 35 -11 80 -11 99 0 43 -20 63 -185 184 -70 51 -170 138 -240
209 -114 115 -121 125 -149 201 -16 44 -40 94 -53 111 l-24 32 43 68 c23 38
44 71 46 74 2 3 17 -11 34 -30 91 -103 192 -201 258 -250 41 -30 100 -79 131
-108 61 -57 63 -63 70 -212 3 -70 213 -274 397 -384 35 -21 111 -86 170 -145
118 -117 174 -148 282 -153 l55 -3 10 50 c13 66 22 78 73 104 35 18 78 25 215
36 95 8 197 19 227 24 30 5 149 9 263 10 115 0 213 3 218 7 5 3 53 9 107 14
53 4 162 17 242 29 295 41 380 45 950 46 492 1 582 3 790 23 129 12 250 25
268 28 18 4 45 1 60 -5 19 -7 79 -8 197 -2 151 8 231 15 566 50 48 5 95 14
105 19 34 18 235 43 414 53 96 5 218 15 270 23 52 8 130 17 173 21 43 4 93 11
110 16 74 22 294 51 452 59 320 17 467 30 574 50 58 11 183 27 276 35 94 9
215 23 270 31 55 9 127 20 160 24 44 7 82 5 142 -6 85 -16 203 -17 288 -4 28
5 73 11 101 14 51 5 52 4 58 -24 8 -45 35 -71 65 -63 37 9 230 139 324 218
239 199 337 323 358 455 5 35 15 73 22 86 16 30 153 151 198 174 20 11 49 30
65 43 16 13 52 36 79 50 28 14 61 34 75 45 14 11 27 19 28 17 2 -2 17 -57 33
-122z m-1118 -131 c3 -4 3 -20 0 -35 -8 -42 -19 -43 -228 -32 -110 6 -162 3
-335 -19 -113 -14 -236 -28 -275 -32 -38 -3 -149 -14 -245 -24 -96 -10 -229
-21 -295 -25 -66 -3 -169 -12 -230 -20 -163 -20 -405 -30 -405 -17 0 16 -36
33 -54 26 -9 -3 -16 -12 -16 -20 0 -18 -20 -22 -165 -34 -66 -5 -214 -26 -330
-45 -115 -19 -239 -36 -275 -36 -77 -1 -580 -54 -835 -89 -38 -5 -108 -10
-155 -10 -47 0 -114 -5 -150 -11 -36 -6 -137 -13 -225 -14 -158 -3 -466 -23
-720 -47 -188 -17 -724 -16 -910 4 -60 6 -144 5 -250 -3 -88 -6 -234 -11 -325
-11 -280 1 -656 -47 -868 -110 -18 -5 -94 -41 -170 -80 -75 -39 -155 -79 -177
-91 -22 -11 -54 -30 -71 -43 -33 -26 -74 -32 -74 -11 0 6 -3 22 -6 34 -5 19 3
26 58 54 34 17 108 60 163 94 115 72 217 118 301 135 33 7 81 21 108 32 38 15
70 18 150 17 55 -2 202 5 326 15 124 9 324 21 445 26 121 4 263 11 316 15 74
6 115 4 180 -10 71 -15 143 -17 474 -18 413 0 611 11 805 45 202 36 337 48
695 63 353 15 517 30 655 60 125 27 251 45 329 45 40 0 141 11 225 25 201 33
270 43 336 50 81 9 231 34 270 45 55 16 316 29 560 29 167 -1 273 5 410 20
389 45 570 59 772 60 114 0 209 -2 211 -7z m90 -7 c-3 -9 -8 -14 -10 -11 -3 3
-2 9 2 15 9 16 15 13 8 -4z m-8474 -131 c148 -182 213 -255 349 -395 107 -109
145 -155 153 -183 6 -21 8 -40 5 -43 -8 -9 -81 53 -134 115 -28 31 -136 138
-241 237 -106 99 -202 196 -216 215 -25 38 -41 115 -30 150 7 21 7 21 27 3 12
-10 51 -55 87 -99z m-581 69 c12 -16 40 -56 63 -90 22 -35 70 -89 106 -120
141 -125 181 -165 188 -190 3 -14 2 -29 -2 -34 -4 -4 -71 45 -148 109 -143
120 -180 164 -214 258 -13 38 -22 49 -39 48 -20 0 -20 6 1 34 14 17 19 15 45
-15z m10140 -20 c4 -27 -98 -115 -238 -206 -64 -41 -115 -82 -130 -104 -34
-50 -104 -117 -169 -160 -30 -20 -83 -58 -118 -84 -35 -27 -66 -49 -68 -49
-11 0 19 58 43 84 34 37 158 134 210 165 31 18 47 38 66 81 27 64 50 84 149
128 40 18 91 53 125 85 95 89 124 103 130 60z m-673 -86 c-13 -45 -32 -72
-106 -153 -49 -53 -118 -118 -154 -144 -35 -25 -88 -68 -118 -95 -29 -28 -81
-69 -115 -92 l-62 -42 0 38 c0 35 5 41 58 79 51 35 110 94 208 203 43 48 126
122 191 170 30 23 67 60 82 84 32 53 39 32 16 -48z m-9696 -296 c10 -20 26
-61 36 -91 16 -48 34 -70 144 -179 69 -69 189 -171 266 -229 121 -91 165 -132
140 -132 -17 0 -126 65 -188 112 -94 70 -235 205 -254 242 -8 17 -32 49 -54
71 -21 22 -48 63 -60 90 -12 28 -37 71 -56 98 -21 29 -33 54 -29 63 8 22 31 3
55 -45z m10561 -157 c0 -7 -17 -24 -37 -40 -21 -15 -63 -52 -93 -80 -36 -34
-70 -56 -98 -63 -23 -7 -106 -40 -184 -74 -128 -56 -144 -65 -174 -107 -28
-38 -51 -55 -146 -102 -122 -61 -291 -138 -301 -138 -30 0 40 83 85 100 18 7
94 46 168 86 74 40 147 76 162 79 36 9 62 39 55 66 -12 44 7 63 79 82 38 10
87 27 109 39 22 11 65 33 96 49 79 39 167 96 214 137 l39 36 13 -30 c6 -16 12
-34 13 -40z m-1683 25 c67 -6 137 -9 155 -7 18 1 34 -1 36 -7 1 -6 -37 -13
-90 -17 -245 -18 -434 -28 -547 -28 -84 0 -224 -13 -435 -39 -171 -22 -374
-45 -451 -51 -77 -6 -174 -16 -215 -21 -41 -5 -140 -16 -220 -24 -80 -8 -233
-25 -340 -39 -107 -13 -242 -27 -300 -31 -58 -3 -163 -13 -235 -21 -71 -8
-168 -19 -215 -24 -47 -6 -129 -16 -183 -25 -92 -14 -414 -37 -488 -35 -19 1
-54 -4 -79 -9 -25 -6 -99 -10 -165 -11 -66 0 -172 -7 -235 -15 -64 -7 -207
-19 -319 -24 -111 -6 -206 -13 -210 -15 -28 -18 -700 -53 -826 -44 -16 1 -142
2 -280 2 -203 0 -278 -4 -400 -21 -82 -12 -193 -25 -245 -28 -52 -4 -151 -13
-220 -21 -69 -8 -170 -14 -225 -14 -107 -1 -341 -22 -415 -38 -25 -6 -74 -13
-110 -17 -36 -4 -80 -13 -99 -21 -48 -20 -53 -18 -36 16 19 37 76 70 190 110
165 58 205 63 760 100 88 6 216 18 285 28 98 13 197 17 455 16 182 0 375 -2
430 -4 55 -3 136 1 180 7 50 8 246 15 525 18 245 3 463 7 485 10 22 3 119 9
215 15 175 10 323 22 500 40 52 5 165 14 250 20 85 6 189 18 230 26 76 14 273
37 480 54 63 6 122 12 130 15 8 2 103 11 210 20 107 9 218 20 245 25 28 5 190
23 360 40 171 17 337 35 370 40 146 23 303 40 475 50 102 6 203 12 225 14 56
5 247 -3 392 -15z m-8112 -225 c32 -27 100 -88 150 -135 49 -47 135 -116 190
-154 55 -38 135 -95 178 -127 44 -32 90 -61 103 -64 18 -5 24 -13 24 -35 0
-16 -2 -29 -5 -29 -19 0 -134 68 -168 99 -98 89 -374 313 -418 339 -52 30
-179 147 -179 166 0 6 -3 22 -6 36 -6 24 -5 23 32 -11 22 -19 66 -57 99 -85z
m-1006 -116 c62 -104 152 -218 261 -330 98 -102 222 -191 430 -310 88 -50 97
-58 122 -108 14 -30 29 -71 32 -90 l6 -35 -22 35 c-11 19 -27 45 -34 57 -7 11
-71 50 -141 86 -103 53 -151 84 -238 160 -161 138 -367 353 -398 412 -14 28
-48 81 -76 119 -56 75 -56 77 -40 93 19 19 51 -10 98 -89z m9826 80 c-8 -31
-149 -163 -194 -182 -39 -16 -249 -49 -263 -40 -17 11 -7 34 15 34 12 0 75 13
140 29 128 31 169 53 246 133 51 53 65 59 56 26z m-9962 -180 c24 -40 66 -109
93 -153 27 -44 74 -105 104 -135 106 -105 188 -180 198 -180 6 0 46 -30 89
-67 127 -110 184 -150 252 -177 36 -14 70 -26 77 -26 19 0 57 -55 97 -140 69
-148 117 -201 208 -229 32 -11 68 -37 134 -102 86 -83 137 -119 169 -119 8 0
52 -18 98 -40 70 -34 92 -40 138 -39 33 1 84 -6 125 -19 107 -32 151 -36 167
-15 21 29 159 93 200 93 20 0 70 6 111 14 41 8 108 17 148 21 41 3 109 11 152
17 59 8 117 8 232 -2 135 -11 158 -11 199 3 25 9 61 13 78 11 18 -3 80 5 138
17 75 16 132 22 200 20 52 -1 131 4 175 12 87 16 354 17 570 2 92 -6 154 -3
265 10 117 13 161 15 222 6 79 -11 467 1 490 15 13 8 531 25 833 27 l210 2 59
29 59 29 156 -6 c108 -4 180 -2 236 7 244 41 243 41 270 26 21 -11 43 -12 132
-1 59 7 114 16 122 20 9 4 75 16 146 25 123 17 135 17 220 1 147 -29 239 -23
354 22 44 17 82 24 125 24 70 0 271 24 331 40 22 6 99 12 170 12 120 0 139 -3
252 -36 120 -36 326 -79 435 -92 32 -3 102 -1 155 5 54 7 154 13 222 14 l123
1 55 59 c31 33 71 83 89 111 18 29 54 70 81 92 45 38 79 55 283 140 144 60
150 62 150 70 1 5 9 18 20 31 13 16 51 32 124 52 58 17 123 39 143 50 21 11
56 20 78 20 48 0 155 29 212 58 22 12 68 51 101 88 33 36 62 62 66 56 3 -5 24
-59 45 -120 37 -102 39 -111 23 -125 -51 -44 -312 -211 -383 -246 -46 -22
-142 -59 -214 -81 -200 -64 -217 -71 -265 -116 -25 -22 -63 -48 -85 -56 -52
-20 -304 -82 -421 -103 -108 -20 -162 -47 -189 -98 -16 -29 -26 -37 -48 -37
-15 0 -36 6 -48 13 -30 18 -52 -15 -43 -67 l6 -39 -168 7 c-230 10 -660 7
-764 -5 -218 -25 -292 -30 -698 -44 -410 -15 -691 -33 -847 -55 -152 -22 -479
-35 -870 -36 -241 0 -457 -5 -525 -12 -63 -7 -209 -17 -325 -22 -115 -6 -277
-19 -360 -30 -82 -11 -204 -27 -269 -36 -66 -8 -123 -17 -128 -20 -4 -3 -142
-9 -305 -14 -164 -5 -336 -15 -383 -21 -135 -18 -783 -20 -998 -3 -216 17
-682 19 -802 3 -47 -6 -98 -12 -115 -13 -44 -4 -43 -4 -55 -26 -23 -43 23 -83
56 -50 38 38 529 52 854 25 246 -20 891 -20 1060 1 69 8 240 19 380 24 184 6
322 17 495 39 308 40 526 61 634 61 47 0 145 8 216 16 97 12 239 17 560 19
379 2 718 14 855 30 145 17 519 45 605 45 55 0 179 4 275 10 96 6 254 15 350
20 96 6 231 16 300 24 139 16 522 20 793 10 l177 -7 13 -26 c9 -17 19 -25 32
-23 11 2 58 7 105 11 90 8 116 17 167 61 17 16 61 42 97 60 56 28 81 34 178
41 160 12 255 40 380 112 38 21 134 63 215 92 242 87 427 170 528 236 53 34
97 60 99 58 2 -2 19 -47 38 -99 20 -52 38 -102 42 -111 12 -28 -96 -116 -204
-167 -52 -24 -160 -76 -240 -114 -159 -77 -289 -124 -431 -158 -51 -12 -110
-30 -130 -41 -21 -10 -55 -19 -76 -19 -21 0 -69 -12 -108 -27 -67 -25 -79 -26
-295 -28 -221 -3 -226 -3 -270 -28 -34 -20 -47 -23 -58 -15 -10 9 -18 9 -32 0
-16 -10 -20 -8 -25 8 -7 23 -1 21 -190 51 -119 19 -193 23 -495 27 -222 3
-404 0 -485 -7 -71 -6 -247 -16 -390 -21 -156 -6 -336 -20 -450 -35 -104 -13
-278 -29 -385 -35 -107 -6 -252 -18 -323 -26 -70 -8 -243 -19 -385 -24 -141
-5 -372 -17 -512 -25 -525 -30 -749 -40 -880 -38 -169 3 -349 -12 -505 -42
-156 -31 -353 -45 -655 -47 -334 -3 -840 8 -925 21 -38 6 -118 10 -176 11
-132 0 -577 -27 -717 -44 -56 -7 -105 -10 -107 -7 -3 2 -5 15 -5 29 0 37 -27
51 -101 52 -36 0 -88 6 -115 14 -27 8 -74 19 -105 25 -77 14 -139 44 -234 116
-133 100 -139 104 -213 119 -160 33 -199 74 -212 217 -5 54 -13 85 -28 106
-38 53 -129 114 -235 157 -57 24 -123 57 -148 75 -379 275 -500 385 -610 555
-32 50 -72 109 -87 131 -16 22 -37 54 -47 72 l-18 32 43 56 c42 55 85 95 101
95 4 0 27 -33 52 -72z m11092 -98 c6 -25 1 -34 -31 -62 -112 -99 -197 -140
-371 -179 -45 -10 -101 -28 -125 -40 -40 -21 -177 -54 -186 -45 -2 2 1 13 7
24 6 11 8 27 5 36 -4 11 4 16 33 21 108 17 366 100 438 140 33 18 93 58 134
89 41 30 77 53 82 51 4 -3 10 -19 14 -35z m-11226 -195 c56 -85 128 -183 159
-216 65 -69 295 -261 392 -328 36 -24 81 -57 100 -74 34 -30 112 -69 203 -102
52 -19 161 -94 175 -122 5 -10 12 -48 15 -85 14 -157 93 -235 273 -266 31 -5
66 -20 90 -39 203 -156 226 -168 348 -194 50 -11 123 -28 161 -37 l70 -19 -95
-6 c-58 -4 -110 -3 -134 4 -42 12 -135 66 -235 137 -83 58 -146 82 -222 82
-59 0 -61 1 -116 53 -74 70 -107 120 -144 219 -18 46 -43 96 -58 112 -14 15
-64 47 -111 71 -162 80 -245 129 -320 185 -41 31 -124 93 -183 138 -69 51
-158 133 -243 223 -137 144 -174 191 -213 268 -13 24 -33 53 -46 65 l-24 22
25 32 c14 18 27 32 29 32 1 0 49 -70 104 -155z m1306 -95 c39 -24 96 -58 127
-76 31 -19 70 -50 86 -70 16 -19 67 -67 113 -106 46 -39 90 -79 97 -89 7 -10
39 -40 70 -66 31 -25 48 -43 37 -38 -11 4 -32 10 -47 12 -17 3 -66 43 -135
110 -108 105 -192 167 -300 221 -32 17 -86 51 -120 76 -53 38 -63 51 -63 75 0
17 -4 33 -10 36 -5 3 -10 11 -10 16 0 6 19 -5 43 -24 23 -19 74 -54 112 -77z
m-1509 52 c82 -144 105 -174 243 -310 124 -122 223 -208 324 -283 143 -106
258 -179 359 -230 148 -74 193 -108 202 -150 10 -53 128 -219 202 -285 92 -81
106 -88 176 -81 50 4 62 2 90 -18 223 -161 305 -189 532 -184 l108 3 14 -32
c7 -18 16 -32 19 -32 3 0 27 9 51 21 95 43 191 51 629 51 484 0 903 -8 1070
-21 73 -5 173 -5 255 0 74 5 221 13 326 17 104 5 194 11 200 14 21 13 252 37
449 48 116 6 280 15 365 21 109 7 175 7 221 0 37 -6 88 -8 115 -5 80 9 238 35
247 41 4 3 90 6 190 8 292 5 701 32 822 54 245 45 530 71 774 71 86 0 226 7
311 15 269 26 470 30 596 11 181 -27 364 -37 456 -27 87 11 308 0 426 -21 56
-9 65 -8 82 7 11 10 22 16 25 13 3 -3 10 -30 15 -61 10 -63 25 -97 43 -97 7 0
41 14 77 31 114 55 178 66 315 56 79 -5 142 -5 185 2 36 6 99 13 140 17 41 3
109 16 150 29 41 12 95 26 120 30 69 10 454 142 557 190 101 47 338 179 365
202 9 8 22 13 29 11 6 -2 33 -50 60 -106 l48 -103 -46 -27 c-25 -15 -78 -48
-117 -73 -105 -68 -257 -156 -312 -180 -26 -12 -82 -42 -123 -66 -137 -81
-314 -143 -451 -157 -30 -3 -180 -11 -333 -17 -288 -11 -398 -4 -459 27 -46
24 -77 18 -117 -25 -38 -41 -44 -43 -326 -76 -22 -3 -157 -12 -300 -20 -143
-8 -330 -19 -415 -25 -85 -5 -263 -12 -395 -15 -320 -8 -562 -22 -780 -45
-307 -33 -505 -47 -950 -70 -177 -9 -284 -16 -800 -54 -110 -8 -290 -19 -400
-25 -287 -15 -1512 -22 -1755 -10 -220 10 -545 -4 -841 -37 l-145 -16 -55 31
c-66 37 -91 38 -254 11 -66 -11 -165 -23 -220 -26 l-101 -7 -2 46 -2 46 43 5
c113 12 407 36 442 36 22 0 49 -7 60 -16 35 -27 87 -34 161 -24 169 25 714 39
1114 29 206 -4 1180 17 1355 31 72 5 293 17 492 25 199 8 368 17 375 20 7 2
74 9 148 14 74 6 194 17 265 25 72 9 240 25 375 36 272 23 627 54 795 70 61 5
202 15 315 20 575 29 635 31 780 19 129 -10 165 -9 335 10 105 12 226 21 270
21 44 0 125 5 180 11 55 5 124 10 152 10 53 0 73 14 73 52 0 23 -46 42 -72 30
-45 -22 -65 -24 -263 -33 -110 -5 -276 -19 -370 -31 -145 -18 -183 -19 -256
-10 -47 6 -137 11 -200 11 -275 1 -1525 -88 -1979 -141 -350 -40 -573 -57
-928 -70 -152 -5 -369 -17 -482 -25 -231 -17 -1127 -40 -1355 -34 -369 9
-1034 -6 -1062 -23 -6 -4 -42 -8 -80 -9 -57 -1 -77 3 -105 20 -43 27 -129 29
-288 7 -132 -18 -242 -19 -258 -3 -9 9 -49 13 -120 14 -93 1 -120 5 -202 33
-104 35 -179 74 -304 155 -115 75 -116 76 -201 76 -56 0 -86 5 -115 20 -40 20
-41 23 -75 144 -18 65 -72 130 -164 199 -55 41 -234 123 -331 151 -30 9 -113
45 -185 81 -71 35 -143 69 -159 75 -42 16 -180 114 -265 189 -87 76 -234 268
-278 362 -16 35 -44 86 -61 113 -18 28 -32 57 -32 65 0 19 129 171 144 171 6
0 20 -17 32 -38z m10164 -92 c-30 -73 -89 -98 -236 -99 -61 -1 -62 -1 -68 30
-3 17 -6 45 -6 62 l0 30 75 -7 c96 -9 168 1 208 28 31 21 32 21 35 3 2 -10 -2
-31 -8 -47z m455 -82 c-78 -69 -111 -88 -226 -128 -156 -55 -289 -152 -289
-211 0 -6 -16 -32 -36 -55 -35 -43 -36 -44 -98 -44 -69 0 -86 10 -86 53 0 26
3 28 28 23 50 -11 117 -9 141 3 25 14 51 67 51 104 0 36 21 49 180 117 79 33
171 78 204 98 54 34 149 79 170 81 5 1 -13 -18 -39 -41z m-10830 -45 c9 -21
24 -47 34 -58 11 -11 33 -49 51 -85 35 -71 177 -264 237 -322 114 -110 220
-180 418 -278 110 -55 247 -115 305 -136 158 -54 217 -85 301 -152 75 -61 109
-111 109 -161 0 -10 7 -37 15 -60 20 -59 10 -51 -26 21 -65 129 -113 167 -334
261 -141 61 -392 186 -552 274 -89 50 -195 130 -295 223 -78 72 -120 135 -227
344 -20 38 -44 72 -56 76 -11 4 -27 15 -34 24 -12 14 -11 20 9 41 13 14 25 25
27 25 1 0 10 -17 18 -37z m11810 -15 l17 -43 -49 -43 c-117 -104 -361 -221
-681 -327 -77 -25 -129 -49 -165 -76 -63 -48 -89 -55 -237 -69 -116 -11 -204
-24 -272 -41 -20 -5 -68 -34 -106 -64 -74 -58 -126 -75 -172 -56 -23 9 -23 10
-4 10 47 2 85 23 102 59 22 47 61 68 158 87 138 27 317 66 369 82 64 20 162
71 169 89 9 23 105 65 230 101 157 45 314 123 478 238 73 51 136 94 139 94 4
1 15 -18 24 -41z m-11865 -190 c11 -11 32 -42 46 -71 31 -61 145 -223 202
-287 52 -60 195 -161 302 -215 47 -24 111 -59 144 -79 32 -19 82 -43 110 -52
85 -28 377 -180 431 -225 95 -79 164 -150 225 -232 56 -76 136 -148 202 -183
15 -7 69 -24 120 -37 51 -13 122 -39 156 -56 70 -35 231 -91 265 -91 12 0 40
-9 62 -19 l40 -19 -45 -1 c-25 -1 -76 -6 -115 -12 -38 -5 -113 -11 -165 -11
l-96 -2 -92 52 c-105 60 -182 92 -217 92 -51 0 -73 20 -100 91 -46 119 -143
210 -252 235 -37 9 -95 24 -128 34 -33 10 -96 26 -140 35 -49 11 -112 34 -164
61 -47 24 -90 44 -96 44 -12 0 -287 156 -338 192 -143 101 -228 190 -367 387
-79 112 -170 291 -170 335 0 17 19 49 52 90 l53 64 27 -51 c16 -28 37 -59 48
-69z m-221 -115 c28 -78 94 -201 149 -279 83 -119 217 -279 254 -305 18 -12
51 -39 74 -60 104 -94 521 -313 664 -349 47 -11 112 -29 145 -40 33 -10 95
-26 137 -35 74 -15 79 -18 135 -79 40 -42 64 -79 77 -117 27 -78 77 -124 143
-133 29 -4 74 -16 100 -27 66 -28 169 -92 156 -96 -6 -2 -34 10 -63 28 -53 33
-200 89 -233 89 -34 0 -107 61 -161 134 -77 104 -102 120 -241 156 -222 57
-270 73 -380 127 -61 29 -115 53 -121 53 -15 0 -225 126 -324 195 -110 77
-319 272 -375 351 -44 61 -155 276 -155 299 0 17 -37 48 -49 41 -5 -4 -13 -1
-16 5 -7 10 51 79 65 79 3 0 12 -17 19 -37z m2601 17 c8 -5 11 -10 5 -10 -5 0
-17 5 -25 10 -8 5 -10 10 -5 10 6 0 17 -5 25 -10z m76 -26 c13 -3 24 -10 24
-15 0 -13 -11 -11 -50 12 -19 11 -27 18 -17 15 11 -4 30 -9 43 -12z m-2818
-148 c7 -19 21 -37 30 -40 9 -3 25 -26 35 -50 29 -70 133 -220 253 -364 20
-24 62 -62 93 -85 31 -22 79 -62 106 -88 28 -26 102 -74 170 -109 66 -35 140
-77 164 -93 57 -39 298 -153 386 -184 39 -13 108 -30 155 -38 134 -22 158 -34
218 -106 117 -142 160 -175 252 -198 64 -16 160 -54 160 -63 0 -10 -18 -10
-77 2 -26 5 -88 16 -138 25 -49 9 -124 27 -165 40 -41 14 -134 40 -205 59
-232 61 -354 116 -681 306 -367 214 -580 370 -686 503 -51 64 -110 189 -132
282 -9 39 -21 85 -27 103 -10 30 -7 37 27 82 21 28 41 50 44 50 3 0 12 -16 18
-34z m12441 -23 c12 -25 10 -29 -15 -50 -16 -12 -168 -89 -339 -172 -229 -110
-344 -159 -431 -185 -65 -20 -164 -52 -219 -72 -127 -45 -217 -56 -490 -59
-214 -2 -222 -3 -282 -28 -71 -30 -83 -32 -83 -14 0 7 28 26 63 43 53 26 69
29 107 23 125 -20 355 -2 456 36 36 14 83 25 103 25 20 0 56 10 81 21 25 12
87 30 139 41 52 10 119 29 150 42 31 13 74 29 96 36 22 7 93 39 158 72 64 32
147 69 183 83 84 32 214 109 256 152 39 40 51 41 67 6z m-10138 -60 c13 -16
12 -17 -3 -4 -17 13 -22 21 -14 21 2 0 10 -8 17 -17z m182 -117 c29 -13 84
-34 122 -46 82 -27 72 -38 -14 -16 -85 22 -169 67 -227 121 l-49 46 58 -41
c32 -23 82 -52 110 -64z m-2589 -79 c56 -166 114 -251 264 -381 146 -127 236
-187 637 -423 240 -141 456 -233 680 -287 61 -15 135 -35 165 -45 30 -11 93
-27 140 -37 96 -20 100 -22 80 -34 -37 -24 -123 -10 -294 46 -191 63 -375 131
-391 144 -6 5 -42 22 -81 39 -115 48 -277 121 -314 140 -362 191 -517 295
-681 457 -131 128 -209 239 -269 384 -13 30 -29 62 -36 70 -12 12 -10 19 13
42 l27 29 17 -33 c9 -18 29 -68 43 -111z m-162 -54 c15 -32 42 -92 61 -133 62
-138 263 -358 407 -448 41 -25 102 -67 136 -92 70 -54 177 -120 192 -120 6 0
71 -29 144 -64 280 -136 465 -218 518 -230 31 -7 71 -21 90 -31 19 -10 82 -33
140 -51 100 -32 239 -93 240 -105 0 -3 -32 -21 -72 -40 -39 -19 -96 -49 -126
-66 -52 -32 -59 -33 -161 -33 -128 0 -228 23 -346 79 -111 52 -255 143 -323
203 -31 28 -97 77 -147 111 -49 33 -137 106 -195 161 -58 56 -130 119 -162
139 -31 21 -97 76 -147 123 -161 152 -243 273 -295 434 -50 159 -50 154 -20
189 14 17 29 31 33 31 4 0 19 -26 33 -57z m3101 41 c15 -3 27 -10 27 -16 0
-14 -54 -5 -100 16 l-35 16 40 -5 c22 -3 52 -8 68 -11z m9816 -161 c-1 -14
-113 -100 -164 -126 -27 -13 -59 -35 -70 -47 -39 -44 -201 -163 -267 -196
-310 -156 -771 -252 -1028 -215 -102 15 -241 49 -255 62 -6 6 4 7 25 2 46 -9
127 -8 415 6 278 13 452 42 568 94 151 67 491 256 677 377 72 46 101 59 99 43z
m-13065 -169 c41 -127 271 -404 429 -516 33 -24 112 -91 174 -150 62 -58 153
-132 201 -163 48 -32 105 -74 127 -95 59 -56 149 -118 258 -179 l96 -55 -33
-40 c-56 -70 -275 -252 -394 -328 -62 -40 -159 -103 -215 -139 -125 -82 -329
-199 -502 -290 -120 -63 -215 -107 -695 -327 -313 -143 -1067 -430 -1083 -412
-9 9 -37 355 -48 595 -11 229 -6 698 10 890 l6 80 85 58 c47 32 146 95 220
139 74 45 173 107 220 138 47 31 126 81 175 110 136 81 388 256 458 318 34 31
102 86 152 123 49 37 144 122 210 188 65 66 122 117 126 113 4 -4 14 -30 23
-58z m13185 -49 c51 -74 62 -99 57 -119 -8 -31 -143 -134 -241 -183 -38 -20
-89 -49 -112 -64 -69 -48 -373 -215 -471 -259 -120 -54 -207 -64 -492 -56
-118 3 -248 6 -287 5 -70 0 -155 12 -218 32 -26 8 -35 22 -67 99 l-37 91 52
-7 c29 -3 73 -13 100 -21 38 -13 83 -14 235 -9 281 9 296 12 592 99 122 36
170 56 211 87 19 16 80 51 135 79 111 57 234 141 369 248 50 40 95 72 100 72
6 0 39 -42 74 -94z m-10773 -215 c16 -6 67 -12 114 -14 l85 -2 80 -56 c171
-120 325 -185 480 -204 48 -6 55 -8 35 -15 -58 -17 -130 -9 -237 27 -60 20
-128 49 -153 64 -91 58 -180 93 -254 100 -86 8 -138 34 -194 94 -49 53 -54 66
-13 37 15 -11 41 -25 57 -31z m8613 -200 c6 -28 11 -82 11 -119 0 -79 15 -68
-143 -101 -51 -10 -105 -24 -121 -30 -51 -19 -255 -50 -426 -65 -91 -8 -300
-28 -465 -45 -165 -17 -349 -35 -410 -40 -60 -6 -290 -28 -510 -50 -220 -21
-479 -46 -575 -55 -319 -29 -673 -65 -828 -85 -88 -12 -271 -25 -430 -30 -152
-6 -385 -14 -517 -20 -560 -23 -682 -24 -835 -6 -147 18 -306 43 -460 72 -62
12 -141 16 -290 16 -338 0 -787 -9 -913 -17 l-117 -8 -86 38 -86 38 -81 -12
c-69 -11 -236 -48 -299 -67 -14 -4 -22 11 -42 76 -31 98 -32 104 -4 122 27 18
18 48 -13 48 -39 0 -10 14 44 21 29 4 97 14 152 22 55 9 139 19 186 23 82 6
88 5 152 -26 l67 -32 86 22 c120 30 464 42 1169 39 704 -3 1937 24 2325 50
163 12 181 12 270 8 25 -1 101 8 170 21 125 22 588 65 815 77 227 11 661 36
1035 60 129 8 318 20 419 26 211 12 668 63 680 75 2 2 17 4 32 4 25 0 28 -5
38 -50z m1991 -55 c0 -8 13 -45 29 -82 16 -38 55 -131 86 -208 146 -362 158
-408 158 -590 -1 -157 -11 -205 -98 -476 -101 -312 -135 -409 -166 -470 -33
-66 -89 -230 -164 -484 -29 -99 -69 -225 -89 -280 -20 -55 -50 -154 -65 -220
-28 -115 -67 -219 -125 -334 -15 -29 -43 -99 -63 -155 -19 -55 -52 -135 -73
-178 -22 -42 -45 -97 -51 -123 -7 -26 -27 -70 -47 -97 -36 -53 -77 -144 -117
-260 -13 -37 -39 -93 -57 -125 -19 -32 -49 -94 -67 -138 -19 -44 -67 -141
-107 -215 -40 -74 -89 -178 -108 -230 -19 -52 -48 -126 -66 -165 -34 -75 -77
-180 -164 -400 -30 -77 -67 -166 -81 -197 l-25 -56 -41 9 c-52 12 -188 -5
-247 -31 l-42 -19 -58 38 c-31 21 -86 52 -122 69 -96 45 -460 291 -460 311 0
3 58 121 129 261 127 252 169 340 271 575 28 66 74 168 101 226 53 114 120
331 145 469 18 103 43 351 44 437 0 48 5 70 24 97 13 19 31 66 41 103 9 37 32
122 50 188 46 168 108 445 150 675 41 223 116 534 152 630 14 36 31 81 38 100
22 60 57 320 51 380 -12 115 -127 397 -227 556 -44 70 -47 78 -20 69 36 -11
723 -8 780 4 69 14 209 76 347 153 60 33 143 73 184 89 53 21 85 41 111 69 38
42 59 51 59 25z m-1785 -135 c26 -63 53 -122 59 -130 7 -8 19 -30 26 -48 7
-18 26 -45 42 -60 92 -85 277 -480 286 -607 5 -79 -31 -293 -63 -371 -51 -125
-120 -402 -175 -699 -17 -93 -54 -273 -83 -400 l-52 -230 -6 105 c-4 58 -9
184 -13 280 -4 96 -11 238 -17 315 -5 77 -12 277 -14 445 -2 168 -9 409 -14
535 -6 127 -15 346 -21 489 -6 142 -13 262 -15 267 -5 7 5 232 10 227 2 -2 24
-55 50 -118z m-197 -112 l-3 -43 -70 -23 c-193 -65 -523 -115 -1275 -192 -113
-12 -250 -28 -305 -35 -110 -16 -421 -41 -615 -50 -114 -5 -271 -15 -740 -46
-91 -6 -235 -14 -320 -19 -85 -5 -216 -16 -290 -25 -322 -37 -792 -49 -1375
-34 -258 7 -303 11 -405 34 -274 61 -559 71 -1033 37 -351 -26 -413 -27 -590
-14 -122 9 -128 10 -149 37 -21 27 -23 28 -98 22 -50 -4 -111 -18 -176 -42
-125 -44 -144 -45 -144 -6 0 16 -3 37 -7 47 -5 13 -3 16 9 12 8 -4 64 6 124
22 60 15 140 34 177 41 l68 13 72 -40 c71 -38 74 -39 168 -37 52 1 129 6 170
12 49 7 106 7 164 1 96 -10 223 -7 425 11 155 14 370 1 585 -35 390 -66 546
-74 1055 -52 206 9 508 21 670 26 210 7 370 19 555 40 395 46 605 67 885 90
239 20 342 30 810 79 102 11 266 27 365 36 712 62 829 77 1150 149 152 34 147
34 143 -16z m-7822 -54 c18 -5 23 -16 28 -67 4 -34 18 -94 31 -132 26 -77 40
-153 50 -260 3 -38 15 -119 25 -180 10 -60 21 -157 25 -215 6 -108 11 -159 45
-490 32 -308 49 -427 76 -545 39 -168 92 -356 142 -500 34 -99 46 -150 50
-212 6 -104 -12 -277 -48 -468 -46 -242 -53 -359 -54 -870 -1 -666 9 -1142 28
-1338 9 -96 18 -291 19 -456 2 -158 7 -292 10 -298 18 -28 42 -377 67 -978 6
-137 15 -289 20 -336 6 -47 10 -112 10 -145 0 -39 6 -68 18 -85 15 -23 95 -94
190 -169 l32 -25 -15 -250 c-8 -137 -19 -349 -25 -470 -11 -243 -18 -325 -29
-325 -14 0 -362 134 -511 197 -202 85 -573 266 -775 378 -2054 1136 -3537
3084 -4084 5365 -73 304 -168 836 -152 852 4 5 117 46 251 92 405 138 791 301
1415 596 152 72 384 199 623 344 394 238 543 345 688 493 l90 92 51 -13 c29
-8 116 -17 195 -21 l143 -7 65 34 c36 19 115 61 175 93 61 31 121 67 135 80
38 35 140 82 315 147 152 56 197 67 360 87 82 10 291 13 321 5z m7838 -155 c3
-17 6 -77 6 -132 0 -87 -2 -102 -20 -117 -11 -10 -74 -32 -140 -49 -213 -57
-493 -84 -1062 -106 -227 -8 -469 -22 -538 -30 -69 -7 -183 -21 -255 -29 -71
-9 -206 -23 -300 -31 -175 -17 -707 -83 -875 -110 -116 -18 -344 -40 -795 -76
-183 -15 -855 -18 -1165 -6 -221 9 -414 27 -577 54 -92 16 -119 16 -290 3
-274 -20 -501 -23 -638 -9 -66 7 -187 13 -268 14 l-149 1 -75 82 c-74 81 -75
82 -123 82 -26 0 -83 -6 -126 -14 -44 -8 -100 -17 -126 -21 l-46 -6 -11 51
c-6 28 -11 58 -11 66 0 18 136 84 173 84 13 0 46 7 73 15 55 17 124 20 124 6
0 -20 72 -29 265 -37 271 -10 303 -10 510 5 99 7 189 13 200 12 98 -5 190 -1
243 8 47 9 103 9 225 1 89 -6 219 -15 288 -20 98 -6 136 -13 175 -31 54 -26 1
-24 609 -23 339 0 435 4 529 18 54 9 179 16 306 17 128 1 239 7 275 15 72 15
281 39 465 54 74 6 187 15 250 20 63 6 180 8 260 4 120 -5 156 -3 210 11 46
12 115 18 235 20 105 2 197 9 240 19 39 9 106 16 150 16 130 0 591 28 653 39
115 21 280 40 402 46 69 4 168 13 220 21 52 8 148 21 212 29 64 8 150 26 190
39 95 31 94 31 102 -5z m16 -353 c0 -30 -4 -36 -37 -49 -91 -36 -207 -60 -405
-84 -185 -22 -262 -26 -578 -28 -454 -4 -662 -12 -810 -30 -63 -7 -149 -17
-190 -20 -41 -4 -199 -26 -350 -50 -151 -24 -315 -48 -365 -55 -82 -10 -220
-33 -365 -59 -91 -17 -387 -49 -515 -56 -66 -4 -156 -11 -200 -16 -177 -20
-490 -39 -651 -39 -94 0 -229 -5 -300 -11 -71 -7 -235 -12 -364 -11 -235 0
-303 7 -470 47 -30 8 -91 16 -135 20 -44 3 -119 13 -167 21 -94 16 -287 13
-468 -6 -124 -13 -296 -13 -340 0 -19 6 -103 14 -187 19 -152 9 -152 9 -225
49 -114 62 -265 86 -377 60 -28 -6 -53 -10 -55 -7 -2 2 -7 25 -11 50 l-7 46
64 11 c131 23 214 34 237 30 16 -2 41 -25 70 -62 77 -99 83 -101 225 -98 74 1
162 -4 222 -13 134 -20 431 -30 514 -16 36 6 143 16 237 23 162 11 179 10 275
-10 195 -40 627 -62 1198 -62 501 0 940 39 1915 169 121 17 274 35 340 41 66
6 203 20 305 30 102 11 233 24 292 30 59 6 241 15 405 20 360 12 499 22 793
56 203 23 387 59 429 84 34 20 51 12 51 -24z m0 -318 c0 -79 -4 -148 -8 -154
-9 -14 -83 -30 -222 -49 -59 -7 -171 -30 -251 -50 -191 -48 -386 -93 -482
-110 -43 -8 -130 -26 -194 -40 -64 -15 -152 -30 -197 -35 -164 -19 -591 -41
-976 -50 -356 -9 -530 -20 -805 -49 -49 -6 -178 -15 -285 -20 -107 -6 -271
-18 -365 -26 -231 -20 -1138 -37 -1320 -24 -90 6 -187 21 -270 40 -71 17 -168
35 -215 40 -109 11 -389 11 -600 -1 -346 -20 -418 -22 -527 -11 -73 7 -136 19
-185 37 -48 18 -103 29 -161 33 l-88 6 -24 60 c-35 84 -42 88 -155 81 -52 -3
-118 -9 -146 -12 l-51 -6 -7 63 c-4 35 -10 74 -12 86 -5 17 3 26 40 48 53 31
179 56 214 43 13 -4 40 -8 61 -8 24 0 70 -16 130 -45 l92 -46 152 7 c143 6
158 5 221 -16 74 -24 49 -24 399 -4 192 11 528 -22 727 -71 201 -50 647 -43
1063 16 85 12 193 19 285 19 81 0 212 7 292 15 80 9 231 20 335 25 230 11 432
31 705 69 113 16 248 34 300 41 160 19 189 25 365 78 l170 50 701 0 c385 0
718 3 740 7 36 6 299 57 459 89 39 8 76 14 83 15 9 1 12 -34 12 -141z m20
-288 l0 -58 -77 -33 c-123 -51 -134 -54 -488 -129 -49 -11 -182 -29 -295 -40
-113 -12 -241 -28 -285 -36 -404 -72 -439 -75 -1080 -114 -99 -6 -236 -15
-305 -21 -69 -5 -294 -13 -500 -19 -260 -6 -460 -17 -650 -35 -151 -14 -320
-30 -375 -35 -55 -5 -206 -9 -335 -10 -244 0 -334 9 -590 60 -58 11 -170 25
-250 30 -80 5 -179 17 -220 27 -67 15 -143 17 -725 18 -625 1 -653 2 -740 22
-49 12 -125 24 -168 27 -90 5 -116 19 -197 100 -49 51 -58 56 -97 56 -23 0
-65 -9 -92 -20 -28 -11 -53 -15 -56 -11 -3 5 -8 30 -11 55 -7 51 -18 45 107
65 106 18 146 15 163 -11 8 -13 17 -37 21 -54 3 -17 17 -42 31 -54 21 -21 35
-24 111 -25 61 -1 105 -8 143 -23 30 -11 82 -26 115 -33 83 -16 364 -17 645 0
136 7 317 11 430 8 184 -5 203 -7 335 -42 207 -54 331 -60 995 -47 390 8 605
17 755 31 116 10 280 24 365 30 85 6 225 18 310 25 201 19 579 36 795 36 185
0 636 23 780 40 79 10 332 55 525 95 36 7 162 36 280 65 118 28 265 60 325 71
61 11 151 28 200 38 50 10 93 16 98 14 4 -2 7 -30 7 -63z m0 -306 c0 -59 -4
-93 -10 -89 -5 3 -33 -1 -62 -10 -28 -8 -120 -22 -202 -30 -83 -9 -176 -20
-206 -26 -73 -15 -251 -76 -380 -131 -96 -41 -140 -55 -325 -103 -33 -8 -165
-29 -294 -45 -129 -17 -253 -35 -275 -40 -66 -14 -410 -59 -548 -70 -126 -11
-212 -7 -473 20 -130 14 -280 12 -535 -6 -124 -9 -376 -17 -560 -19 -260 -2
-374 -7 -510 -23 -286 -34 -375 -36 -530 -12 -74 12 -194 27 -265 35 -72 7
-157 20 -190 28 -33 9 -88 18 -122 22 -78 9 -583 -11 -771 -30 -189 -20 -258
-19 -361 5 -47 10 -148 24 -223 30 -114 9 -153 16 -233 45 -104 38 -170 69
-180 85 -3 5 -2 26 4 45 13 48 -3 93 -36 101 -14 4 -67 4 -118 0 l-94 -7 -6
48 c-3 26 -8 60 -10 74 -4 24 1 29 43 47 86 36 86 36 164 -9 40 -23 85 -53 99
-66 35 -32 120 -50 264 -57 66 -2 141 -10 168 -15 29 -7 118 -9 230 -6 100 2
231 1 290 -3 60 -4 243 -3 407 1 296 9 301 9 442 -16 79 -14 184 -31 233 -37
50 -5 135 -23 191 -39 135 -39 325 -55 549 -46 287 11 395 22 460 45 68 25
254 39 585 46 107 2 292 6 410 9 118 3 368 8 555 10 187 3 369 10 405 15 132
19 318 39 430 45 63 4 171 17 240 30 69 13 168 26 220 30 52 4 147 15 210 26
63 11 162 24 220 30 119 11 189 25 340 69 58 16 146 39 195 49 50 11 101 24
115 29 49 20 50 18 50 -84z m5 -181 c6 -31 3 -39 -17 -55 -13 -9 -29 -18 -37
-18 -16 0 -380 -112 -474 -145 -85 -31 -221 -65 -409 -104 -80 -17 -182 -39
-225 -50 -138 -35 -292 -60 -531 -86 -129 -14 -264 -32 -300 -39 -37 -8 -110
-17 -162 -21 -85 -6 -336 -28 -625 -55 -55 -5 -176 -10 -270 -10 -199 -2 -419
-13 -599 -31 -103 -10 -191 -10 -440 0 -366 14 -446 21 -598 55 -62 14 -160
30 -218 36 -261 27 -312 33 -420 50 -166 27 -614 29 -880 5 -207 -19 -274 -17
-575 20 -66 8 -150 14 -187 15 -36 0 -106 9 -155 20 -48 11 -98 23 -109 25
-12 3 -25 12 -28 21 -6 15 10 94 18 94 2 0 53 -20 113 -44 116 -46 210 -66
315 -66 35 0 113 -9 173 -20 118 -22 206 -24 330 -9 95 11 624 33 745 31 47
-1 132 -10 190 -21 58 -11 139 -22 180 -26 41 -3 139 -17 218 -31 189 -32 325
-31 579 2 172 23 240 27 523 29 179 1 402 8 495 15 256 19 541 18 750 -3 121
-13 210 -17 270 -12 187 14 457 46 660 80 116 19 253 39 305 45 200 22 368 64
545 137 288 118 320 127 539 149 94 9 198 25 231 34 33 10 63 18 66 19 4 0 10
-16 14 -36z m-7321 -101 c3 -5 0 -27 -6 -49 l-10 -41 -65 -7 c-36 -4 -69 -3
-74 2 -5 5 -10 27 -12 49 l-2 39 75 6 c41 3 78 6 82 7 4 1 9 -2 12 -6z m7331
-34 c2 -7 5 -82 7 -165 l3 -152 -90 -21 c-49 -11 -151 -31 -225 -45 -74 -13
-187 -42 -250 -64 -430 -147 -764 -244 -990 -286 -313 -59 -1055 -93 -1402
-63 -144 12 -269 6 -558 -28 -157 -18 -457 -40 -754 -55 -239 -12 -443 -3
-606 26 -41 8 -149 27 -240 44 -91 17 -208 34 -260 38 -109 9 -344 0 -571 -22
-207 -20 -364 -19 -443 1 -34 9 -109 18 -171 19 -263 6 -437 53 -700 188
l-120 62 -36 128 c-48 169 -51 184 -35 190 7 3 34 8 58 12 l45 7 7 -44 c4 -23
8 -56 9 -73 2 -35 47 -69 104 -79 21 -4 83 -20 138 -35 55 -16 132 -33 170
-38 85 -12 828 -7 970 7 55 5 172 14 259 21 172 12 155 14 386 -42 42 -10 123
-25 180 -34 58 -8 125 -21 150 -29 47 -14 110 -23 375 -52 109 -12 164 -14
202 -7 36 7 99 6 205 -3 108 -10 174 -11 223 -4 58 7 253 11 818 13 17 0 82
-2 142 -4 98 -4 115 -2 155 18 29 14 73 24 125 28 44 4 127 15 185 25 72 12
182 20 350 24 276 7 562 39 721 81 53 13 154 36 225 51 71 14 190 41 264 59
74 19 189 46 255 60 173 39 462 136 590 199 123 61 124 61 130 44z m15 -397
c0 -14 -6 -17 -23 -14 -22 4 -105 -42 -132 -74 -32 -37 -470 -179 -881 -284
-87 -23 -208 -54 -268 -69 -197 -51 -297 -60 -776 -70 -828 -18 -1090 -28
-1169 -45 -311 -65 -1069 -111 -1269 -76 -151 27 -395 43 -687 46 -230 3 -336
8 -410 20 -56 10 -205 21 -340 25 -496 18 -885 43 -1007 66 -56 10 -113 29
-173 59 -49 25 -108 49 -130 55 -39 9 -42 12 -62 75 -12 36 -19 65 -17 65 2 0
48 -22 102 -49 171 -86 304 -131 427 -146 28 -4 84 -13 125 -20 41 -7 101 -11
133 -8 35 4 89 -1 140 -12 97 -20 279 -18 682 9 201 14 273 15 365 6 126 -12
303 -40 447 -70 153 -33 317 -43 578 -36 233 6 713 43 885 68 61 9 220 12 560
10 669 -4 1117 20 1351 72 35 8 117 25 181 40 161 34 217 51 725 218 111 36
271 78 410 108 125 26 229 49 231 49 1 1 2 -7 2 -18z m8 -407 c-1 -271 -1
-275 -21 -270 -11 3 -81 -11 -156 -31 -194 -50 -239 -59 -396 -77 -186 -22
-319 -45 -380 -66 -56 -19 -179 -80 -237 -116 -71 -45 -113 -50 -258 -30 -84
11 -154 15 -193 11 -139 -14 -302 -37 -477 -67 -184 -30 -187 -30 -415 -23
-126 5 -376 9 -555 10 -337 1 -371 4 -481 36 -37 10 -114 24 -172 30 -99 10
-117 9 -254 -17 -209 -39 -417 -39 -713 -2 -118 15 -280 34 -360 43 -80 8
-206 22 -280 31 -111 14 -156 15 -250 6 -66 -6 -285 -10 -510 -8 -375 2 -402
4 -540 29 -80 14 -196 30 -258 37 -113 11 -201 38 -366 112 -48 22 -48 23 -43
63 3 22 9 82 13 133 l7 93 26 -6 c14 -4 46 -19 71 -35 61 -39 191 -74 249 -67
25 3 78 -1 116 -8 39 -8 140 -19 225 -25 85 -6 184 -15 220 -20 158 -23 266
-31 425 -34 164 -3 341 -15 530 -37 63 -7 141 -7 260 0 114 8 195 8 245 1 41
-5 128 -10 193 -10 100 0 138 -5 240 -31 121 -31 124 -32 297 -26 96 4 213 11
260 16 47 5 135 15 195 21 113 11 272 41 359 66 31 9 97 14 175 14 69 0 167 7
216 15 73 12 115 13 220 5 72 -6 142 -13 157 -16 34 -7 520 26 531 35 4 5 74
6 155 3 189 -6 501 13 619 37 64 14 116 32 175 64 46 25 126 58 178 75 140 44
364 109 455 131 44 10 123 39 175 64 52 25 129 54 170 65 41 12 91 28 110 36
19 8 38 15 42 16 5 0 7 -124 6 -276z m-3 -372 c-5 -23 -13 -32 -34 -37 -16 -3
-82 -26 -147 -51 -66 -25 -157 -59 -203 -76 -47 -16 -114 -45 -150 -63 -36
-19 -95 -41 -131 -50 -36 -9 -105 -27 -155 -40 -95 -26 -264 -61 -455 -94 -64
-11 -134 -27 -157 -35 -22 -8 -76 -19 -119 -25 -44 -7 -108 -16 -144 -21 -384
-57 -497 -53 -900 30 -52 10 -168 34 -258 51 l-163 32 -337 -8 c-185 -5 -578
-8 -872 -8 l-535 1 -90 26 c-248 72 -209 68 -603 62 -196 -4 -463 -9 -592 -12
-153 -4 -263 -2 -315 5 -44 7 -159 20 -255 31 -346 39 -466 57 -508 79 -23 12
-65 26 -94 32 -29 6 -68 20 -86 31 -30 18 -32 23 -26 56 4 21 8 39 10 40 4 5
104 -33 195 -74 69 -31 94 -36 240 -50 89 -8 205 -24 257 -35 144 -29 337 -41
488 -29 95 8 164 8 262 -1 116 -10 147 -10 255 6 114 16 130 16 242 2 273 -36
355 -46 450 -52 55 -3 190 -18 300 -32 230 -29 411 -28 595 4 141 24 350 23
440 -2 36 -10 83 -22 105 -26 36 -8 984 -34 1160 -32 39 0 126 12 195 26 272
55 429 66 775 56 l130 -4 55 33 c213 127 311 155 690 198 90 10 188 29 260 50
135 39 212 54 224 43 4 -4 5 -21 1 -37z m-15 -111 c0 -5 -9 -11 -20 -14 -20
-5 -26 3 -13 16 9 10 33 8 33 -2z m0 -118 c0 -16 -3 -37 -6 -48 -8 -30 -88
-81 -195 -124 -52 -21 -155 -66 -229 -99 -87 -38 -176 -70 -250 -87 -158 -38
-228 -58 -347 -99 -163 -57 -240 -64 -808 -76 -386 -7 -543 -14 -645 -28 -123
-16 -188 -17 -710 -11 -620 8 -865 20 -1028 50 -58 10 -166 24 -241 29 -75 6
-160 15 -190 20 -101 18 -266 22 -536 11 -217 -8 -310 -16 -475 -42 -113 -17
-259 -34 -325 -36 -155 -6 -348 11 -455 42 -47 13 -114 29 -150 35 -36 6 -99
20 -140 30 -396 98 -480 126 -587 198 -48 31 -53 38 -53 71 1 41 15 119 23
127 3 3 22 -3 44 -14 21 -11 79 -25 128 -31 50 -6 122 -15 160 -20 39 -5 95
-18 126 -29 46 -18 90 -22 235 -28 126 -4 194 -11 229 -22 40 -14 83 -16 220
-14 106 1 230 -4 330 -14 155 -16 164 -16 300 4 124 18 162 19 330 12 291 -13
332 -18 460 -51 l120 -30 290 2 c345 4 381 3 505 -2 116 -4 307 6 501 28 136
15 150 15 213 -1 38 -9 116 -22 175 -28 58 -6 171 -28 251 -49 183 -47 177
-46 350 -64 167 -17 403 -20 481 -5 30 6 137 19 239 30 460 50 672 82 795 120
50 15 130 40 180 55 49 15 128 47 175 71 73 38 105 48 226 69 77 13 169 35
205 48 82 32 79 32 79 0z m-26 -190 c-4 -16 -15 -55 -24 -87 l-17 -60 -164
-84 c-389 -198 -583 -240 -1269 -272 -135 -6 -275 -15 -311 -20 -133 -19 -328
-21 -574 -7 -180 10 -298 12 -420 6 -108 -6 -217 -5 -300 1 -71 6 -281 10
-465 8 -276 -2 -356 1 -455 15 -160 24 -355 56 -435 72 -231 46 -629 21 -1295
-81 -98 -15 -132 -16 -309 -5 -110 7 -241 21 -290 31 -50 10 -120 21 -156 24
-120 12 -244 37 -350 72 -58 20 -125 42 -150 50 -127 42 -356 129 -366 138 -6
6 -9 33 -6 62 l4 51 113 -59 c92 -47 139 -65 242 -88 70 -17 166 -41 212 -55
47 -14 134 -34 194 -45 59 -11 132 -27 160 -35 138 -42 510 -60 639 -31 35 8
137 24 228 35 205 25 792 40 910 23 41 -7 137 -16 214 -22 76 -6 184 -20 240
-31 169 -34 502 -50 1096 -54 500 -3 557 -2 690 16 156 21 248 26 835 39 358
8 386 10 490 34 61 14 148 41 195 60 47 19 143 46 213 60 70 14 153 36 185 50
158 66 450 194 467 204 30 17 36 14 29 -15z m-7074 -434 c52 -17 142 -41 200
-55 58 -14 133 -33 166 -44 78 -24 234 -51 497 -86 196 -26 215 -27 340 -16
213 19 390 44 612 88 72 14 168 29 215 34 464 47 493 47 710 -8 302 -77 338
-83 580 -92 247 -9 387 -22 526 -47 97 -17 150 -15 483 22 102 11 197 14 390
9 141 -3 344 -7 451 -9 111 -1 207 -7 223 -14 28 -11 160 0 407 34 100 13 317
28 275 19 -159 -37 -397 -75 -675 -109 -49 -6 -193 -32 -395 -71 -148 -29
-316 -72 -425 -109 -41 -14 -118 -37 -170 -50 -52 -13 -135 -38 -184 -55 -195
-66 -300 -73 -573 -40 -91 11 -169 22 -172 25 -6 3 -71 11 -496 61 -138 16
-368 51 -550 84 -204 36 -791 22 -1075 -26 -238 -41 -236 -41 -895 124 -88 22
-194 47 -236 56 -42 10 -92 28 -111 41 -20 13 -77 42 -127 63 -50 22 -122 58
-159 80 -37 22 -79 46 -94 53 -27 12 -28 15 -28 85 l0 73 98 -46 c53 -25 140
-58 192 -74z m6960 97 c0 -2 -11 -28 -25 -59 -24 -55 -24 -55 -82 -67 -32 -6
-127 -29 -211 -51 -84 -22 -199 -46 -255 -54 -173 -25 -232 -17 -76 10 223 38
386 90 524 165 103 56 125 65 125 56z m-6620 -462 c107 -24 224 -53 260 -63
121 -36 306 -80 406 -97 112 -18 245 -15 384 11 121 22 333 34 655 37 263 2
290 0 445 -25 91 -15 206 -32 255 -39 81 -12 56 -13 -252 -10 -395 4 -689 -9
-888 -39 -117 -18 -168 -20 -310 -15 -257 8 -414 23 -582 56 -84 17 -165 30
-180 30 -16 0 -66 14 -113 30 -47 16 -92 30 -101 30 -25 0 -315 113 -398 154
-40 21 -104 58 -142 83 -65 43 -69 48 -69 84 l0 37 218 -110 217 -110 195 -44z
m6510 212 c0 -22 -15 -35 -35 -30 -12 3 -44 -1 -71 -10 -299 -92 -411 -120
-729 -181 -99 -19 -238 -51 -310 -70 -71 -19 -200 -53 -285 -75 -284 -74 -701
-274 -939 -452 -75 -56 -232 -120 -351 -142 -174 -33 -402 -20 -660 39 -192
44 -421 75 -615 85 -104 5 -255 15 -335 21 -218 18 -463 -2 -785 -63 -97 -18
-135 -20 -330 -15 -167 4 -241 10 -310 25 -49 11 -157 29 -240 41 -82 12 -193
36 -245 52 -120 39 -431 153 -487 179 -24 11 -105 40 -180 65 -144 48 -228 97
-238 138 -3 12 -5 65 -3 117 l3 95 32 -1 c32 -2 89 -27 233 -103 120 -64 258
-119 350 -140 47 -11 151 -35 232 -54 81 -20 173 -38 205 -42 32 -3 92 -12
133 -20 41 -7 182 -16 314 -20 245 -7 469 6 681 40 183 29 268 34 610 33 l350
0 160 -49 c147 -46 370 -92 575 -119 127 -17 653 -30 761 -19 125 12 185 31
614 187 61 22 193 67 295 100 102 33 217 74 255 90 91 39 276 81 390 88 50 3
117 12 150 20 33 9 124 28 203 44 150 31 221 51 334 94 82 31 268 67 268 52z
m-55 -136 c-13 -28 -26 -42 -44 -46 -14 -3 -62 -15 -106 -26 -44 -11 -123 -27
-175 -34 -52 -8 -117 -21 -145 -29 -27 -7 -120 -30 -205 -49 -85 -20 -213 -52
-285 -71 -71 -19 -145 -35 -163 -35 -19 0 -61 -11 -95 -25 -34 -13 -94 -31
-132 -39 -84 -18 -119 -30 -155 -56 -14 -10 -55 -30 -91 -43 -117 -44 -311
-152 -554 -307 -256 -164 -303 -175 -735 -175 -327 0 -348 3 -521 70 -60 23
-122 39 -181 45 -50 6 -109 15 -132 20 -22 5 -160 10 -305 10 -258 0 -266 -1
-391 -30 -70 -17 -156 -41 -191 -54 -109 -40 -333 -74 -540 -83 -168 -7 -362
13 -519 54 -52 13 -158 38 -234 54 -77 17 -219 57 -316 89 -97 32 -205 64
-239 70 -88 16 -185 54 -416 163 -188 89 -200 96 -206 126 -4 17 -6 31 -5 31
1 0 34 -16 73 -35 39 -19 111 -46 160 -59 48 -13 112 -35 141 -50 29 -15 104
-44 165 -65 62 -21 168 -60 237 -86 102 -38 163 -53 330 -81 112 -19 236 -42
275 -52 57 -14 120 -17 340 -17 269 0 271 0 485 38 247 44 454 57 610 39 52
-7 167 -14 255 -18 184 -7 510 -54 770 -110 154 -33 185 -37 335 -38 189 -1
252 9 417 65 119 41 137 50 223 115 150 112 593 341 751 388 304 90 677 181
904 222 161 28 212 41 405 98 194 57 215 63 219 60 2 -2 -4 -22 -14 -44z
m-1355 -48 c0 -4 -27 -13 -59 -20 -68 -14 -180 -58 -255 -101 -28 -16 -76 -36
-106 -45 -30 -9 -104 -33 -165 -55 -121 -44 -429 -132 -540 -155 -38 -8 -101
-17 -140 -20 -100 -9 -368 8 -590 38 -104 14 -241 33 -304 41 -118 15 -383 76
-363 83 7 2 83 -6 169 -17 87 -12 212 -28 278 -36 66 -8 179 -23 250 -32 81
-11 190 -17 290 -17 177 1 128 -9 555 117 102 30 241 71 310 91 69 20 188 48
265 62 236 42 349 63 370 67 33 7 35 7 35 -1z m1260 -147 c0 -3 -15 -36 -34
-74 -29 -56 -40 -69 -64 -74 -17 -3 -52 -20 -78 -37 -65 -41 -117 -55 -318
-85 -188 -28 -229 -37 -331 -66 -186 -55 -293 -94 -546 -205 -33 -14 -76 -24
-102 -24 -25 0 -48 -4 -51 -9 -3 -4 -81 -11 -173 -14 -93 -4 -181 -9 -198 -13
-30 -6 -29 -5 15 35 59 54 196 120 345 166 124 39 251 96 301 137 45 38 241
94 403 118 80 11 186 31 235 45 50 13 129 29 176 35 47 6 141 22 210 35 69 14
141 26 160 28 19 2 38 5 43 5 4 1 7 0 7 -3z m-3803 -81 c-3 -3 -12 -4 -19 -1
-8 3 -5 6 6 6 11 1 17 -2 13 -5z m3656 -218 l-37 -74 -65 -21 c-124 -38 -306
-80 -421 -96 -144 -20 -205 -37 -293 -81 -89 -46 -250 -99 -357 -119 -350 -65
-456 -111 -655 -285 -44 -38 -125 -106 -180 -149 -55 -44 -116 -93 -135 -109
-146 -122 -420 -175 -786 -153 -174 11 -291 29 -444 70 -87 23 -107 26 -300
47 -193 22 -530 29 -632 14 -44 -6 -112 -20 -151 -31 -73 -20 -247 -49 -437
-74 -89 -11 -130 -11 -274 1 -154 13 -180 18 -305 60 -75 25 -181 56 -237 69
-55 13 -123 34 -150 45 -27 12 -96 39 -154 59 -58 21 -130 52 -160 69 -30 16
-102 47 -160 67 -58 20 -194 82 -302 138 -186 95 -198 103 -198 129 0 15 4 28
8 28 8 0 152 -59 222 -92 25 -11 77 -33 115 -49 39 -15 126 -56 195 -91 69
-36 170 -78 225 -95 181 -56 379 -111 440 -123 32 -7 93 -26 135 -43 131 -53
159 -57 381 -57 177 0 216 3 270 20 35 10 116 28 179 40 63 12 151 28 195 36
44 8 136 16 205 17 110 1 149 -4 335 -42 124 -25 289 -50 405 -61 107 -11 204
-22 215 -24 24 -6 238 -32 370 -46 123 -13 359 -12 431 1 91 17 168 63 264
159 106 106 205 216 264 296 56 75 136 151 179 169 52 22 178 35 332 35 85 0
146 4 150 10 3 6 20 10 36 10 16 0 51 11 77 24 193 97 588 228 758 251 97 13
320 55 370 70 29 8 62 24 75 35 40 33 40 23 2 -54z m-6755 -80 c31 -13 122
-56 202 -94 80 -39 165 -76 190 -82 25 -6 79 -24 120 -40 41 -15 116 -38 165
-50 50 -12 117 -34 150 -48 67 -28 383 -114 520 -141 143 -29 419 -51 647 -52
118 0 129 2 268 45 457 141 496 148 755 150 182 1 196 0 330 -32 77 -18 190
-47 250 -64 220 -62 219 -62 520 -62 297 -1 292 -2 450 53 33 11 89 30 125 41
36 11 73 23 83 27 44 14 -263 -345 -362 -424 -85 -68 -109 -79 -211 -94 -132
-19 -391 -2 -830 55 -63 8 -169 22 -235 30 -66 9 -208 32 -315 52 -268 51
-366 51 -665 -1 -121 -20 -241 -46 -268 -56 -41 -16 -75 -19 -245 -19 l-197 0
-100 36 c-104 38 -122 43 -245 73 -70 17 -163 43 -390 112 -52 16 -158 61
-235 100 -77 39 -178 86 -225 104 -47 18 -139 58 -205 88 l-120 54 -3 132 c-2
87 1 131 8 131 6 0 36 -11 68 -24z m6610 -183 c-23 -51 -61 -115 -71 -117 -53
-15 -175 -40 -295 -61 -133 -24 -447 -107 -524 -139 -92 -39 -226 -68 -318
-71 -52 -1 -101 2 -107 7 -14 11 -76 13 -92 3 -6 -3 -11 -2 -11 2 0 5 39 32
88 60 100 58 154 73 367 103 144 20 154 22 255 74 96 49 114 55 190 61 179 13
279 28 385 55 117 31 139 35 133 23z m-181 -214 c-10 -6 -44 -12 -75 -15 -68
-5 -59 2 18 15 75 12 78 12 57 0z m-513 -137 c-131 -65 -180 -79 -299 -86 -68
-5 -75 -4 -45 5 19 6 96 32 170 57 133 45 252 79 279 81 7 1 -40 -25 -105 -57z
m-5839 -54 c44 -22 110 -58 147 -80 36 -22 93 -48 125 -58 32 -10 117 -40 188
-65 72 -26 155 -56 185 -67 30 -11 96 -35 147 -54 51 -19 106 -34 122 -34 17
0 54 -9 83 -20 29 -11 132 -41 228 -67 l175 -47 230 -4 c255 -4 377 6 500 42
124 37 204 54 347 72 112 14 149 15 252 5 67 -7 164 -16 216 -21 149 -14 318
-40 405 -61 187 -45 654 -64 816 -33 122 23 310 87 424 144 95 48 174 101 275
187 34 29 27 18 -32 -47 -42 -47 -103 -116 -137 -155 -261 -299 -280 -318
-338 -335 -62 -19 -180 -23 -313 -10 -240 23 -291 25 -415 21 -38 -2 -128 4
-200 13 -71 9 -168 21 -215 26 -47 5 -107 14 -135 19 -81 15 -305 22 -362 12
-29 -6 -92 -15 -140 -21 -48 -6 -145 -24 -214 -40 -70 -17 -182 -39 -250 -50
-68 -11 -153 -25 -189 -30 -227 -37 -247 -38 -361 -19 -118 19 -153 30 -301
95 -184 82 -337 122 -506 134 -111 7 -127 11 -180 40 -31 18 -70 44 -86 57
-34 28 -165 96 -216 111 -19 6 -62 20 -94 31 -47 17 -84 21 -176 21 l-117 0
-12 133 c-6 72 -15 157 -18 187 l-6 54 34 -22 c19 -13 70 -41 114 -64z m6345
76 c0 -3 -46 -76 -102 -163 l-101 -158 -116 -23 c-64 -12 -154 -35 -201 -50
-47 -15 -132 -42 -190 -60 -303 -93 -663 -297 -748 -425 -24 -36 -51 -60 -98
-86 -35 -20 -81 -49 -102 -65 -60 -47 -84 -60 -146 -78 -52 -15 -71 -16 -168
-5 -153 17 -639 6 -727 -15 -35 -9 -120 -25 -190 -36 -167 -27 -205 -35 -346
-80 -66 -21 -153 -43 -194 -50 -41 -7 -112 -25 -159 -41 -47 -16 -144 -41
-216 -55 -72 -15 -165 -35 -206 -46 -45 -11 -145 -23 -250 -30 -164 -10 -182
-10 -285 11 -91 17 -130 32 -230 82 -152 78 -282 134 -327 143 -20 4 -116 13
-214 21 -201 15 -186 11 -474 145 -85 39 -180 81 -210 93 -30 12 -100 51 -155
88 -55 36 -111 72 -124 79 -13 7 -57 40 -98 73 -64 52 -73 64 -73 93 l0 33 73
-6 c127 -10 227 -46 472 -170 l230 -116 140 -8 c99 -5 169 -15 240 -34 91 -24
239 -89 304 -134 75 -52 250 -76 531 -76 123 1 149 4 282 39 82 20 187 50 235
67 48 16 98 29 112 29 14 0 60 13 101 29 65 25 104 32 265 46 193 17 223 17
425 -11 63 -8 153 -19 200 -23 47 -5 110 -17 140 -29 67 -25 213 -44 382 -49
142 -5 131 -7 414 83 204 64 212 70 449 302 234 229 355 334 445 387 69 41 85
46 117 41 25 -4 65 1 113 13 41 11 86 21 100 21 43 1 186 56 231 88 55 41 142
69 297 97 149 26 152 27 152 19z m-1080 -119 c98 -3 99 -3 43 -29 -28 -13 -78
-41 -110 -61 -85 -54 -387 -300 -408 -332 -27 -40 -240 -249 -290 -283 -56
-39 -187 -85 -300 -105 -146 -27 -386 -5 -602 55 -158 43 -288 55 -578 53
-231 -3 -257 -5 -335 -27 -47 -14 -116 -31 -155 -40 -38 -8 -99 -22 -135 -32
-441 -112 -412 -107 -600 -112 -136 -3 -190 0 -243 12 -38 9 -80 16 -95 16
-15 0 -59 18 -97 41 -187 110 -246 130 -435 149 -63 6 -133 16 -155 22 -49 12
-264 119 -308 152 -18 13 -81 47 -141 75 -106 50 -200 76 -368 104 -117 19
-74 35 87 32 65 -1 105 -8 145 -23 30 -12 62 -22 70 -22 16 0 152 -76 277
-154 77 -48 80 -49 188 -58 213 -17 297 -37 473 -111 203 -85 234 -96 307
-112 152 -32 201 -30 430 11 44 8 159 28 255 45 96 17 199 37 228 44 28 8 89
19 135 25 45 6 116 18 157 26 89 17 265 8 480 -25 247 -38 284 -42 495 -46
116 -2 264 -9 330 -14 169 -15 261 -13 346 5 72 16 76 19 149 93 84 86 210
226 315 350 64 76 252 251 300 279 11 7 33 9 50 6 17 -4 59 -8 95 -9z m1271
-66 c46 -28 111 -71 144 -96 33 -24 96 -68 140 -98 110 -74 185 -119 304 -182
1 -1 9 -33 16 -71 8 -39 26 -94 40 -123 48 -94 164 -190 258 -213 15 -3 27
-13 27 -20 0 -39 -212 -284 -307 -356 -78 -59 -140 -80 -237 -80 -141 0 -335
50 -363 93 -5 7 -8 125 -8 262 0 185 -3 256 -13 273 -19 32 -103 72 -154 72
-63 0 -217 27 -234 40 -9 8 -12 21 -7 39 10 44 73 163 116 221 23 30 62 96 88
145 65 129 83 156 95 151 7 -3 50 -28 95 -57z m1110 6 c114 -41 145 -136 99
-303 -45 -163 -173 -362 -232 -362 -43 0 -123 46 -169 97 -51 58 -68 104 -76
208 -8 97 14 163 81 250 65 86 91 105 157 115 82 12 93 11 140 -5z m-1551
-225 c0 -11 -209 -112 -312 -151 -43 -16 -134 -40 -203 -54 -209 -43 -350 -97
-490 -186 -122 -79 -129 -77 -14 3 161 113 485 265 539 253 18 -4 31 -1 40 11
20 24 126 59 325 109 105 27 115 28 115 15z m-97 -248 c-5 -56 -2 -77 16 -117
12 -26 20 -49 19 -50 -2 -1 -19 -13 -38 -27 -19 -13 -64 -35 -100 -48 -105
-37 -686 -333 -804 -409 -124 -81 -170 -100 -339 -140 -67 -16 -176 -50 -242
-76 -66 -26 -165 -58 -220 -71 -90 -23 -120 -25 -305 -25 -233 0 -265 -6 -480
-85 -289 -106 -276 -103 -755 -203 -49 -11 -117 -22 -150 -25 -133 -14 -225
-29 -319 -53 -135 -34 -260 -29 -394 15 -51 17 -105 40 -120 50 -15 11 -63 41
-107 67 -72 44 -87 49 -170 58 -49 5 -162 10 -250 12 -88 2 -183 8 -210 13
-28 6 -70 8 -94 5 -40 -6 -45 -3 -89 39 -26 25 -87 72 -137 103 -86 55 -530
285 -550 285 -5 0 -30 14 -55 30 -25 16 -54 30 -64 30 -29 0 -106 52 -111 75
-9 45 -16 235 -8 235 4 0 51 -34 103 -76 87 -69 228 -151 290 -168 14 -4 124
-57 246 -118 l221 -110 134 -10 c74 -5 152 -15 174 -23 22 -8 67 -19 99 -26
33 -6 88 -22 124 -36 36 -13 71 -22 79 -19 7 3 50 -16 96 -43 53 -31 129 -63
217 -91 l135 -42 221 9 c171 7 226 12 245 24 13 9 50 19 81 22 32 4 100 23
152 41 61 23 129 39 191 46 114 12 177 25 214 44 15 8 67 19 117 24 95 11 168
35 227 75 64 43 187 88 278 102 48 7 97 19 110 25 26 14 256 9 349 -8 81 -15
240 -32 373 -39 109 -6 122 -4 200 21 70 23 99 40 188 110 57 45 142 122 189
170 97 101 235 197 306 215 27 7 112 34 189 61 77 27 169 56 205 65 36 9 121
43 190 76 69 32 128 58 132 59 4 0 4 -31 1 -68z m-5933 -226 c41 -27 101 -66
133 -88 32 -22 97 -55 145 -74 48 -20 123 -53 167 -74 44 -21 134 -62 200 -90
128 -55 151 -59 408 -80 149 -12 192 -26 394 -132 98 -51 158 -76 235 -95 99
-24 111 -25 300 -19 173 5 211 10 311 35 62 17 165 39 228 51 63 12 150 34
194 50 44 15 118 35 165 44 47 9 137 32 200 51 179 56 495 113 700 127 135 9
401 5 582 -8 107 -8 188 17 287 91 87 65 111 71 56 14 -58 -59 -166 -137 -216
-155 -73 -26 -199 -29 -354 -8 -101 13 -206 18 -375 19 l-235 0 -158 -38 c-93
-23 -209 -60 -279 -89 -94 -39 -147 -54 -242 -69 -143 -22 -201 -37 -277 -73
-99 -46 -557 -111 -784 -111 -99 0 -101 0 -178 43 -43 24 -105 60 -138 82 -63
41 -155 74 -304 111 -91 22 -198 27 -330 14 -54 -6 -67 -3 -130 28 -39 19
-112 60 -162 91 -51 31 -129 72 -175 91 -145 59 -331 158 -403 216 -38 30 -85
65 -102 78 -33 22 -51 60 -38 81 4 7 24 -4 53 -28 26 -21 81 -60 122 -86z
m6220 4 c137 -21 130 -18 130 -48 0 -20 -13 -38 -53 -70 -28 -24 -143 -132
-255 -239 -175 -169 -218 -205 -310 -259 -59 -35 -139 -83 -177 -108 -39 -24
-104 -58 -145 -74 -89 -35 -245 -134 -402 -253 -122 -93 -267 -167 -380 -194
-35 -9 -137 -20 -228 -25 -167 -9 -251 -25 -318 -59 -48 -24 -241 -85 -317
-100 -33 -7 -87 -21 -120 -31 -122 -37 -597 -136 -775 -161 -142 -20 -421 1
-625 47 -38 8 -144 19 -235 24 -363 21 -579 49 -775 102 -82 22 -175 52 -205
65 -30 14 -111 47 -180 75 -69 28 -152 65 -185 83 -33 18 -78 38 -100 45 -139
44 -416 217 -561 351 -27 25 -64 54 -81 62 -17 9 -33 24 -37 32 -9 23 -8 125
2 125 23 1 453 -222 528 -274 203 -141 260 -170 410 -206 195 -46 282 -58 454
-63 109 -4 197 -12 232 -21 32 -9 135 -54 230 -100 111 -54 194 -88 232 -95
133 -24 539 -1 651 37 33 11 108 28 168 36 75 12 175 39 330 90 255 85 450
141 522 151 28 4 88 16 135 28 76 19 116 21 380 22 l295 1 118 31 c66 18 124
36 130 41 30 24 243 124 342 160 148 54 275 114 343 161 31 21 110 71 175 110
91 55 139 93 210 164 51 51 125 121 164 155 40 35 93 92 119 128 51 71 51 71
164 54z m-530 -191 c-133 -123 -237 -195 -400 -276 -85 -43 -207 -112 -271
-155 -80 -54 -160 -97 -260 -139 -79 -33 -184 -80 -234 -102 l-90 -42 -320 -6
c-176 -4 -354 -12 -395 -18 -41 -7 -183 -39 -315 -71 -132 -32 -269 -64 -304
-70 -35 -6 -128 -32 -205 -56 -292 -93 -394 -114 -666 -134 -160 -13 -286 0
-370 35 -30 13 -113 49 -185 80 -124 54 -135 57 -250 66 -66 5 -153 14 -193
19 -40 6 -97 10 -125 10 -138 0 -325 39 -382 79 -22 16 -59 38 -83 50 -24 12
-89 53 -145 90 -56 38 -122 79 -147 92 -64 33 -257 146 -377 221 -62 38 -103
69 -103 79 0 15 4 15 37 -2 21 -10 45 -19 54 -19 10 0 31 -11 48 -25 16 -14
51 -33 77 -42 26 -9 104 -46 174 -83 69 -37 141 -72 159 -78 30 -11 154 -84
252 -149 20 -13 52 -42 72 -63 37 -42 82 -57 142 -47 19 3 49 1 67 -5 18 -6
101 -11 183 -12 83 -1 197 -8 255 -15 110 -13 153 -30 260 -106 46 -32 121
-60 236 -90 86 -21 231 -19 329 5 44 10 141 26 215 35 74 9 216 34 315 55 99
22 228 48 287 60 59 11 158 38 220 61 62 22 145 51 183 63 39 13 93 33 120 44
101 43 160 50 375 50 239 0 317 13 505 87 63 24 161 56 217 70 205 51 303 89
388 150 69 48 247 149 315 178 33 14 135 64 227 111 92 47 170 86 175 86 4 -1
-26 -32 -67 -71z m660 -16 c0 -43 -4 -50 -47 -91 -27 -25 -93 -75 -148 -113
-132 -91 -293 -228 -445 -380 -111 -111 -249 -208 -497 -352 -74 -42 -118 -61
-156 -66 -59 -8 -77 -16 -77 -35 0 -29 -280 -113 -435 -131 -148 -17 -308 -48
-360 -69 -22 -9 -84 -28 -140 -42 -99 -25 -126 -33 -400 -119 -417 -131 -428
-134 -624 -155 -102 -11 -226 -26 -276 -34 -136 -23 -331 -39 -384 -32 -25 3
-104 13 -174 21 -71 8 -132 17 -136 19 -4 3 -61 14 -127 25 -69 11 -168 37
-233 60 -62 23 -123 41 -135 41 -31 0 -295 63 -391 93 -98 30 -242 88 -401
160 -163 74 -204 95 -329 171 -60 36 -113 66 -118 66 -6 0 -47 26 -91 58 -45
32 -130 84 -191 116 -138 72 -147 81 -143 136 l3 42 61 -53 c119 -105 162
-139 215 -170 29 -17 73 -44 96 -60 37 -26 131 -73 333 -166 104 -49 235 -105
312 -133 43 -16 88 -36 100 -44 25 -16 155 -56 258 -81 167 -39 492 -79 750
-91 63 -3 183 -17 265 -30 83 -13 224 -31 314 -39 156 -14 170 -14 290 6 237
38 509 89 572 108 35 10 127 33 204 51 135 30 373 103 464 142 61 26 198 48
296 48 210 0 427 78 610 220 176 136 331 231 455 280 19 8 80 42 135 76 55 33
134 80 174 104 50 29 118 85 200 164 217 209 341 326 346 326 3 0 5 -21 5 -47z
m1128 -278 c12 -94 30 -215 41 -270 28 -143 49 -323 61 -530 6 -99 15 -211 20
-250 19 -147 27 -132 -117 -233 -1060 -742 -2296 -1228 -3603 -1417 -96 -14
-192 -25 -212 -25 -36 0 -37 1 -43 43 -3 23 -21 154 -40 291 -20 137 -34 251
-32 252 2 2 37 8 78 14 41 6 135 27 209 46 184 49 285 75 490 127 360 91 406
107 580 193 194 96 264 141 380 239 47 39 110 86 140 103 201 113 493 380 676
617 75 97 200 353 288 590 21 55 39 101 41 103 2 2 30 -10 63 -27 126 -64 416
-87 535 -43 107 39 208 123 342 281 38 45 72 78 75 74 4 -5 17 -85 28 -178z
m-1190 -96 c-25 -76 -38 -103 -54 -109 -27 -11 -103 -97 -161 -183 -38 -57
-68 -85 -177 -165 -195 -145 -305 -219 -466 -317 -243 -148 -288 -172 -399
-216 -58 -23 -144 -61 -191 -84 -115 -56 -162 -72 -469 -160 -280 -79 -592
-145 -916 -192 -186 -27 -200 -28 -640 -28 -268 0 -519 5 -620 13 -93 7 -237
17 -320 23 -250 16 -605 71 -735 112 -148 47 -398 141 -459 171 -192 97 -394
248 -512 383 -27 31 -95 96 -152 145 -97 85 -128 121 -114 134 7 8 92 -43 272
-161 295 -195 397 -257 457 -281 34 -13 67 -29 72 -34 6 -6 18 -10 28 -10 10
0 44 -13 75 -30 31 -16 64 -30 73 -30 20 0 117 -36 210 -77 88 -40 289 -100
375 -113 39 -5 95 -17 125 -25 30 -8 73 -15 95 -15 22 0 74 -10 115 -21 250
-71 657 -106 880 -76 63 9 185 23 270 32 141 15 388 67 450 94 14 6 92 27 174
46 82 20 170 47 195 60 55 29 213 75 411 120 236 54 300 65 395 69 76 3 106 9
183 40 51 20 116 41 145 46 68 11 193 52 260 86 50 26 103 63 162 115 17 14
57 41 90 59 33 18 85 52 115 75 104 79 209 145 231 145 15 0 79 57 203 179
175 172 347 314 354 292 2 -6 -11 -56 -30 -112z m-138 -345 c-11 -28 -40 -66
-64 -89 -24 -22 -133 -121 -241 -220 -230 -210 -298 -266 -403 -333 -218 -138
-403 -213 -720 -291 -168 -41 -463 -132 -657 -203 -145 -52 -365 -108 -429
-108 -28 0 -80 -5 -116 -10 -36 -5 -159 -17 -275 -25 -232 -18 -389 -12 -705
25 -418 49 -471 53 -614 47 -115 -5 -160 -3 -241 13 -55 10 -161 26 -235 34
-125 15 -263 50 -400 101 -25 9 -69 21 -99 26 -30 6 -93 30 -140 53 -47 24
-104 49 -126 56 -67 22 -147 65 -230 127 -44 32 -102 74 -130 93 -57 39 -130
105 -297 268 -97 94 -118 119 -118 143 0 16 3 29 8 29 13 0 157 -133 208 -192
117 -133 388 -329 569 -411 55 -24 150 -61 210 -80 61 -20 142 -48 180 -62
148 -56 559 -116 1000 -145 276 -19 798 -32 990 -25 183 6 321 22 565 65 63
11 169 29 235 41 177 30 241 45 346 78 52 16 139 41 195 55 173 44 355 106
458 158 54 27 137 63 185 80 85 30 195 88 301 158 30 20 87 54 125 75 78 43
190 119 405 273 157 113 220 168 252 220 28 46 32 34 8 -24z m-6140 -575 c30
-22 84 -69 120 -103 36 -34 81 -73 100 -86 19 -13 64 -49 99 -79 103 -91 274
-180 431 -226 52 -15 129 -42 170 -60 75 -34 238 -77 339 -89 29 -4 90 -22
135 -40 49 -21 122 -40 186 -50 111 -18 433 -37 588 -36 51 0 112 -5 135 -11
23 -6 69 -13 102 -14 33 -2 89 -9 125 -15 100 -18 205 -23 455 -22 292 1 475
8 537 21 27 6 70 11 96 11 26 0 72 6 102 14 70 18 323 92 375 111 22 8 69 19
105 25 45 8 106 31 195 75 72 36 150 69 175 74 25 6 115 26 200 45 85 20 189
43 230 51 41 9 110 27 153 40 43 14 85 25 93 25 30 0 -159 -149 -267 -209
-206 -118 -352 -173 -619 -236 -111 -26 -388 -98 -578 -150 -84 -23 -164 -38
-220 -41 -48 -2 -132 -9 -187 -14 -94 -8 -476 2 -555 14 -33 6 -209 26 -674
77 -109 12 -221 19 -250 16 -60 -6 -170 10 -311 46 -149 37 -190 47 -305 72
-263 58 -359 90 -545 182 -233 115 -280 147 -462 315 -39 37 -109 91 -155 121
-109 71 -198 147 -198 169 0 28 21 22 80 -23z m278 -458 c113 -98 190 -145
415 -256 180 -89 203 -97 372 -139 99 -24 221 -53 270 -66 82 -20 229 -54 345
-80 25 -6 122 -15 215 -19 94 -5 233 -16 310 -25 630 -73 784 -85 1048 -86 81
0 147 -2 147 -5 0 -3 13 -92 29 -198 39 -256 56 -386 49 -392 -10 -10 -220
-25 -498 -35 -765 -28 -1551 55 -2310 246 -181 45 -579 159 -588 168 -1 2 2
16 8 32 7 16 16 128 21 249 5 121 13 283 19 360 5 77 12 189 16 248 l6 109 22
-20 c11 -10 58 -51 104 -91z"/>
<path d="M14270 15440 c-58 -4 -251 -10 -430 -14 -401 -8 -549 -23 -915 -90
-44 -8 -152 -20 -240 -26 -88 -6 -185 -15 -215 -20 -30 -5 -104 -14 -165 -20
-60 -6 -155 -19 -210 -30 -55 -10 -140 -24 -190 -30 -49 -6 -108 -15 -130 -20
-22 -5 -94 -19 -160 -30 -66 -12 -154 -28 -195 -36 -41 -8 -147 -18 -236 -24
-94 -5 -175 -15 -195 -24 -19 -8 -83 -22 -144 -31 -60 -9 -135 -23 -165 -30
-30 -8 -149 -19 -264 -26 -185 -10 -226 -10 -374 6 -138 15 -204 17 -392 10
-124 -4 -382 -9 -575 -10 -192 -2 -377 -6 -410 -9 -33 -4 -148 -11 -255 -17
-107 -6 -265 -15 -350 -20 -85 -5 -243 -14 -350 -19 -107 -5 -222 -14 -255
-20 -33 -5 -99 -14 -147 -19 -106 -12 -137 -27 -333 -161 -22 -15 -56 -34 -76
-43 -19 -8 -51 -28 -70 -44 -19 -16 -42 -33 -52 -36 -14 -5 -17 -15 -15 -39 4
-46 26 -46 79 0 24 22 62 48 84 60 43 22 153 92 224 143 51 37 117 59 176 59
23 0 86 7 141 15 54 8 151 15 214 15 63 0 147 5 185 10 93 13 352 30 545 36
85 2 193 9 240 14 47 6 279 13 515 16 237 2 489 7 560 10 86 3 189 -1 304 -12
152 -15 202 -15 390 -5 119 6 243 18 276 25 33 8 87 17 120 21 33 4 89 13 125
22 117 26 224 43 276 43 86 0 257 26 554 85 164 32 436 72 579 85 63 6 117 12
120 15 8 4 219 25 326 31 44 2 94 9 110 14 17 5 144 25 283 45 218 30 279 35
450 35 108 0 301 7 427 16 127 8 332 18 457 21 194 5 234 3 277 -11 27 -9 54
-16 60 -16 16 0 24 45 13 67 -9 17 -28 18 -254 19 -133 1 -290 -2 -348 -6z"/>
<path d="M14488 15315 c-2 -3 -141 -7 -309 -9 -287 -4 -313 -6 -464 -34 -162
-31 -263 -45 -435 -62 -52 -5 -140 -13 -195 -19 -55 -6 -183 -17 -285 -26
-102 -9 -255 -25 -340 -36 -291 -38 -385 -48 -433 -49 -59 0 -213 -31 -328
-65 -46 -13 -138 -36 -204 -51 -66 -14 -138 -33 -160 -41 -24 -9 -99 -19 -185
-23 -80 -5 -176 -13 -215 -19 -38 -6 -153 -15 -255 -21 -102 -5 -250 -19 -330
-31 -138 -20 -158 -21 -485 -10 -755 25 -1337 34 -1425 22 -47 -6 -141 -13
-210 -16 -231 -10 -644 -45 -711 -61 -37 -8 -106 -19 -155 -24 -92 -10 -169
-32 -243 -70 -72 -36 -229 -149 -251 -180 -12 -17 -36 -34 -53 -38 -32 -9 -32
-9 -30 -67 2 -56 12 -74 40 -75 6 0 14 9 18 20 7 22 216 180 284 215 133 67
364 125 497 125 43 0 116 4 163 10 193 21 384 34 516 35 77 1 178 7 225 14 60
9 136 11 255 6 150 -6 216 -6 370 -1 122 4 677 -17 780 -30 152 -18 293 -18
415 0 52 8 192 20 310 26 118 6 253 18 300 26 58 10 107 13 155 8 96 -10 139
-6 204 17 30 10 73 19 95 19 58 0 188 38 208 61 27 32 199 79 323 90 61 5 133
13 160 18 28 6 115 15 195 21 80 7 181 18 225 26 44 8 206 26 360 40 154 13
316 29 360 34 177 23 356 40 363 36 19 -12 239 17 282 36 40 19 67 21 255 23
116 1 255 8 310 15 55 8 161 14 235 14 l134 1 8 40 c14 66 17 65 -170 65 -93
0 -171 -2 -174 -5z"/>
</g>
</svg>
